<?xml version="1.0" encoding="UTF-8" standalone="no"?>
<!DOCTYPE svg  PUBLIC '-//W3C//DTD SVG 1.1//EN'  'http://www.w3.org/Graphics/SVG/1.1/DTD/svg11.dtd'>
<svg xmlns="http://www.w3.org/2000/svg">
<defs>
<font id="GroteskBold-Regular" horiz-adv-x="590">
<font-face underline-position="-76" font-weight="700" descent="-200" panose-1="2 11 8 4 2 2 2 2 2 4" units-per-em="1000" unicode-range="U+0020-25CA" bbox="-35 -216 1370 957" x-height="476" underline-thickness="45" font-family="GroteskBold" ascent="800" cap-height="680"/>
<missing-glyph horiz-adv-x="1000"/>
<glyph glyph-name=".notdef" horiz-adv-x="1000"/>
<glyph glyph-name=".null" horiz-adv-x="0"/>
<glyph glyph-name="nonmarkingreturn" horiz-adv-x="333"/>
<glyph glyph-name="space" horiz-adv-x="200" unicode=" "/>
<glyph glyph-name="exclam" horiz-adv-x="276" unicode="!" d="M65 158h146v-158h-146v158zM210 408l-12 -195h-118l-14 195v272h144v-272z"/>
<glyph glyph-name="quotedbl" horiz-adv-x="442" unicode='&quot;' d="M396 584l-29 -219h-93l-26 219v96h148v-96zM195 584l-29 -219h-93l-26 219v96h148v-96z"/>
<glyph glyph-name="numbersign" horiz-adv-x="695" unicode="#" d="M311 372l-15 -93h88l15 93h-88zM34 279h130l15 93h-117v132h138l29 176h132l-29 -176h88l29 176h132l-29 -176h108v-132h-129l-15 -93h116v-132h-137l-24 -147h-133l24 147h-87l-24 -147h-133l24 147h-108v132z"/>
<glyph glyph-name="dollar" horiz-adv-x="640" unicode="$" d="M580 580l-94 -90q-76 73 -173 73q-47 0 -76 -18.5t-29 -49.5t22 -47.5t69 -25.5l108 -21q100 -20 150.5 -64t50.5 -127q0 -87 -60.5 -142.5t-159.5 -68.5v-91h-133v93q-79 14 -138.5 52.5t-89.5 80.5l103 89q78 -104 202 -104q58 0 90 21t32 58q0 32 -24 46.5t-76 23.5 l-86 16q-104 20 -159 64t-55 134q0 76 55.5 130t145.5 68v85h133v-87q118 -20 192 -98z"/>
<glyph glyph-name="percent" horiz-adv-x="983" unicode="%" d="M842 196q0 56 -15.5 88.5t-44.5 32.5q-28 0 -42.5 -32t-14.5 -82q0 -115 57 -115q60 0 60 108zM954 197q0 -87 -44 -148t-129 -61q-87 0 -129.5 61t-42.5 148q0 58 14.5 105t55.5 81.5t104 34.5q40 0 71 -14t49.5 -35.5t30.5 -52t16 -59t4 -60.5zM731 680l-352 -680h-129 l354 680h127zM262 470q0 56 -15.5 88.5t-44.5 32.5q-28 0 -42.5 -32t-14.5 -82q0 -115 57 -115q60 0 60 108zM374 471q0 -87 -44 -148t-129 -61q-87 0 -129.5 61t-42.5 148q0 58 14.5 105t55.5 81.5t104 34.5q40 0 71 -14t49.5 -35.5t30.5 -52t16 -59t4 -60.5z"/>
<glyph glyph-name="ampersand" horiz-adv-x="661" unicode="&amp;" d="M253 536q0 -37 45 -86q25 16 39.5 39.5t14.5 45.5q0 23 -14 36t-35 13q-23 0 -36.5 -13t-13.5 -35zM379 153l-121 148q-40 -23 -61.5 -47.5t-21.5 -58.5q0 -41 29 -63t73 -22q71 0 102 43zM511 0l-57 65q-73 -76 -186 -76q-102 0 -162 53.5t-60 149.5q0 118 142 192 q-63 77 -63 149q0 66 48.5 112t130.5 46q85 0 131 -43t46 -110q0 -101 -109 -175q71 -82 71 -83q10 33 18 88l116 -25q-17 -106 -44 -170l148 -173h-170z"/>
<glyph glyph-name="quotesingle" horiz-adv-x="241" unicode="&apos;" d="M195 584l-29 -219h-93l-26 219v96h148v-96z"/>
<glyph glyph-name="parenleft" horiz-adv-x="306" unicode="(" d="M163 680h131q-114 -203 -114 -415q0 -211 112 -423h-130q-125 197 -125 411q0 213 126 427z"/>
<glyph glyph-name="parenright" horiz-adv-x="306" unicode=")" d="M12 680h131q126 -214 126 -427q0 -214 -125 -411h-130q112 212 112 423q0 212 -114 415z"/>
<glyph glyph-name="asterisk" horiz-adv-x="484" unicode="*" d="M299 680l-3 -139l122 45l37 -108l-124 -39l85 -100l-94 -72l-80 107l-80 -107l-94 72l85 100l-124 39l37 108l122 -45l-3 139h114z"/>
<glyph glyph-name="plus" horiz-adv-x="654" unicode="+" d="M397 228v-228h-139v228h-227v138h227v232h139v-232h226v-138h-226z"/>
<glyph glyph-name="comma" horiz-adv-x="267" unicode="," d="M54 177h159v-108q0 -81 -11 -119q-15 -51 -49 -75.5t-99 -25.5v77q36 2 54 19.5t18 54.5h-72v177z"/>
<glyph glyph-name="hyphen" horiz-adv-x="397" unicode="-" d="M340 225h-284v138h284v-138z"/>
<glyph glyph-name="period" horiz-adv-x="267" unicode="." d="M213 0h-159v178h159v-178z"/>
<glyph glyph-name="slash" horiz-adv-x="553" unicode="/" d="M380 680h152l-358 -680h-153z"/>
<glyph glyph-name="zero" d="M400 336q0 220 -105 220t-105 -220q0 -43 3.5 -75t13.5 -66t32.5 -52.5t55.5 -18.5q34 0 56.5 18.5t32 52.5t13 66t3.5 75zM551 336q0 -66 -11 -122.5t-38 -110t-79.5 -84.5t-127.5 -31q-69 0 -120.5 30t-80 81t-42 110t-13.5 127t12 126.5t39.5 112.5t79.5 85.5 t125 31.5q71 0 122.5 -30.5t79 -83.5t40.5 -112t14 -130z" unicode="0"/>
<glyph glyph-name="one" d="M437 680v-680h-148v416h-188v119h34q76 0 116 29q49 36 52 116h134z" unicode="1"/>
<glyph glyph-name="two" d="M204 396l-142 12q-12 38 -12 73q0 92 67.5 151.5t182.5 59.5q111 0 174 -57.5t63 -155.5q0 -85 -43.5 -148t-124.5 -130q-43 -35 -100 -74h266v-127h-485v102q90 63 209 171q29 26 44.5 42t37.5 43.5t32.5 55.5t10.5 58q0 45 -25 70.5t-69 25.5q-48 0 -71.5 -31 t-23.5 -78q0 -33 9 -63z" unicode="2"/>
<glyph glyph-name="three" d="M36 201l138 17q17 -106 114 -106q54 0 79.5 27.5t25.5 67.5q0 70 -73 84q-22 5 -55 5h-63v115h57q41 0 60 6q60 16 60 79q0 36 -25 55.5t-66 19.5q-90 0 -105 -89l-131 14q3 84 67 140t173 56q111 0 171 -48.5t60 -127.5q0 -101 -96 -152q117 -47 117 -167 q0 -91 -66.5 -150t-189.5 -59q-118 0 -182 56t-70 157z" unicode="3"/>
<glyph glyph-name="four" d="M255 272h77v113l2 118h-2q-21 -37 -49 -76l-61 -86l-51 -69v-1q44 1 84 1zM463 272h99v-123h-99v-149h-131v149h-310v109l302 422h139v-408z" unicode="4"/>
<glyph glyph-name="five" d="M187 270l-128 29l51 381h401l-12 -127h-278l-20 -122q52 37 122 37q95 0 156.5 -62.5t61.5 -165.5q0 -115 -65.5 -183.5t-185.5 -68.5q-108 0 -166.5 50.5t-74.5 125.5l134 39q6 -38 32.5 -64t71.5 -26q52 0 78 31.5t26 88.5t-29 85.5t-76 28.5q-78 0 -99 -77z" unicode="5"/>
<glyph glyph-name="six" d="M540 505l-133 -27q-21 91 -98 91q-58 0 -88.5 -46.5t-31.5 -120.5q53 53 143 53q92 0 154 -60t62 -163q0 -110 -67.5 -177t-178.5 -67q-259 0 -259 342q0 170 70.5 266t197.5 96q57 0 100.5 -17t68.5 -46t39 -59t21 -65zM405 223q0 55 -29.5 83t-72.5 28q-32 0 -63.5 -15 t-48.5 -40q0 -3 -0.5 -9.5t-0.5 -9.5q0 -60 26.5 -104.5t85.5 -44.5q49 0 76 29t27 83z" unicode="6"/>
<glyph glyph-name="seven" d="M559 680v-116q-56 -67 -98 -144q-108 -198 -129 -420h-158q8 96 55 233q67 189 166 320h-209v-95h-142v222h515z" unicode="7"/>
<glyph glyph-name="eight" d="M295 404q50 0 74.5 25.5t24.5 59.5t-24.5 58.5t-74.5 24.5t-74.5 -24.5t-24.5 -58.5q0 -35 24 -60t75 -25zM295 115q52 0 81 23t29 64q0 40 -28.5 64t-81.5 24t-81.5 -24t-28.5 -64q0 -41 29 -64t81 -23zM295 692q109 0 172.5 -51.5t63.5 -137.5q0 -102 -93 -152 q50 -22 81 -63t31 -98q0 -100 -71 -151t-184 -51q-70 0 -125.5 19t-92.5 66t-37 117q0 57 31 98t81 63q-93 50 -93 152q0 86 63.5 137.5t172.5 51.5z" unicode="8"/>
<glyph glyph-name="nine" d="M50 175l133 27q20 -90 98 -90q58 0 88.5 46t31.5 120q-53 -53 -143 -53q-92 0 -154 60t-62 163q0 110 67.5 177t178.5 67q130 0 194.5 -83.5t64.5 -258.5q0 -170 -70.5 -266t-197.5 -96q-57 0 -100.5 17t-68.5 46t-39 59t-21 65zM185 458q0 -55 29.5 -83t72.5 -28 q32 0 63.5 15t48.5 40q0 3 0.5 9.5t0.5 9.5q0 60 -26.5 104.5t-85.5 44.5q-49 0 -76 -29t-27 -83z" unicode="9"/>
<glyph glyph-name="colon" horiz-adv-x="287" unicode=":" d="M223 298h-159v178h159v-178zM223 0h-159v178h159v-178z"/>
<glyph glyph-name="semicolon" horiz-adv-x="286" unicode=";" d="M64 177h159v-108q0 -81 -11 -119q-15 -51 -49 -75.5t-99 -25.5v77q36 2 54 19.5t18 54.5h-72v177zM223 298h-159v178h159v-178z"/>
<glyph glyph-name="less" horiz-adv-x="758" unicode="&lt;" d="M707 120v-146l-679 302v112l679 300v-146l-488 -208z"/>
<glyph glyph-name="equal" horiz-adv-x="802" unicode="=" d="M738 128h-674v126h674v-126zM738 332h-674v126h674v-126z"/>
<glyph glyph-name="greater" horiz-adv-x="758" unicode="&gt;" d="M51 -26v146l488 214l-488 208v146l679 -300v-112z"/>
<glyph glyph-name="question" horiz-adv-x="511" unicode="?" d="M160 144h152v-144h-152v144zM186 409l-148 13q-9 34 -9 68q0 87 60 144.5t163 57.5q117 0 173 -57.5t56 -142.5q0 -109 -87 -177l-37 -29q-32 -25 -43 -41t-11 -45v-19h-136v25q0 52 15.5 84.5t62.5 72.5l38 32q50 40 50 95q0 38 -21 58t-60 20q-42 0 -62 -25t-20 -64 q0 -36 16 -70z"/>
<glyph glyph-name="at" horiz-adv-x="817" unicode="@" d="M585 9q-74 0 -89 43q-43 -39 -124 -39q-68 0 -107.5 34t-39.5 98q0 59 36 87t110 42l85 16q16 3 20.5 6.5t4.5 13.5v3q0 48 -60 48q-36 0 -52 -14.5t-16 -47.5l-114 5q-1 72 50 107.5t139 35.5q83 0 126.5 -28.5t43.5 -94.5v-196q0 -30 19 -30q24 0 43 48.5t19 111.5 q0 112 -65.5 185.5t-182.5 73.5q-122 0 -204 -82.5t-82 -212.5q0 -139 85 -221t211 -82q150 0 251 98l46 -77q-118 -113 -305 -113q-174 0 -285 102t-111 291q0 169 112.5 280.5t279.5 111.5q88 0 157.5 -29t110.5 -78t62 -108.5t21 -124.5q0 -133 -53 -198t-142 -65z M480 164v50q-9 -2 -32 -7l-30 -6q-35 -8 -52.5 -19.5t-17.5 -34.5q0 -51 60 -51q72 0 72 68z"/>
<glyph glyph-name="A" horiz-adv-x="646" unicode="A" d="M401 259l-56 192l-23 88h-1q-12 -45 -25 -89l-58 -191h163zM201 135l-39 -135h-159l229 680h183l227 -680h-162l-40 135h-239z"/>
<glyph glyph-name="B" horiz-adv-x="668" unicode="B" d="M376 0h-303v680h290q105 0 155 -26q88 -48 88 -150q0 -55 -30.5 -91.5t-76.5 -52.5v-1q59 -17 95.5 -59t36.5 -109q0 -111 -92 -162q-53 -29 -163 -29zM457 484q0 38 -26 55q-22 15 -86 15h-123v-145h122q42 0 60 3.5t32 15.5q21 19 21 56zM222 294v-167h126q75 0 97 15 q32 19 32 71q0 58 -49 74q-25 7 -80 7h-126z"/>
<glyph glyph-name="C" horiz-adv-x="666" unicode="C" d="M515 208l124 -59q-82 -161 -276 -161q-150 0 -237.5 97t-87.5 255t89 255t236 97q106 0 176.5 -49t104.5 -125l-126 -53q-43 103 -153 103q-84 0 -130 -60.5t-46 -167.5t45.5 -166t130.5 -59q107 0 150 93z"/>
<glyph glyph-name="D" horiz-adv-x="700" unicode="D" d="M279 0h-206v680h250q119 0 181 -31q76 -37 116 -119.5t40 -187.5q0 -173 -101 -271q-34 -34 -80 -50t-83.5 -18.5t-116.5 -2.5zM223 537v-396h69q43 0 66 1.5t49.5 9.5t42.5 24q54 54 54 162q0 111 -61 164q-25 21 -61 28t-101 7h-58z"/>
<glyph glyph-name="E" horiz-adv-x="611" unicode="E" d="M551 547h-328v-134h296v-132h-296v-147h351v-134h-501v680h478v-133z"/>
<glyph glyph-name="F" horiz-adv-x="549" unicode="F" d="M514 547h-290v-134h277v-135h-277v-278h-151v680h441v-133z"/>
<glyph glyph-name="G" horiz-adv-x="700" unicode="G" d="M38 340q0 158 89 255t236 97q106 0 176.5 -49t104.5 -125l-126 -53q-43 103 -153 103q-84 0 -130.5 -60.5t-46.5 -167.5q0 -109 46 -170t132 -61q71 0 108.5 39.5t43.5 104.5h-193v133h323v-386h-132v60q-25 -30 -71.5 -51t-105.5 -21q-138 0 -219.5 97t-81.5 255z"/>
<glyph glyph-name="H" horiz-adv-x="700" unicode="H" d="M476 282h-252v-282h-151v680h151v-262h252v262h151v-680h-151v282z"/>
<glyph glyph-name="I" horiz-adv-x="297" unicode="I" d="M224 680v-680h-151v680h151z"/>
<glyph glyph-name="J" horiz-adv-x="411" unicode="J" d="M191 680h151v-467q0 -102 -31 -152q-52 -73 -199 -73q-42 0 -92 10v134q41 -11 79 -11q53 0 71 21q21 24 21 103v435z"/>
<glyph glyph-name="K" horiz-adv-x="686" unicode="K" d="M408 403l277 -403h-189l-200 292l-72 -73v-219h-151v680h151v-273l264 273h196z"/>
<glyph glyph-name="L" horiz-adv-x="513" unicode="L" d="M73 680h151v-544h272v-136h-423v680z"/>
<glyph glyph-name="M" horiz-adv-x="842" unicode="M" d="M488 0h-144l-100 398l-36 156q9 -162 9 -332v-222h-144v680h225l88 -337q9 -33 18 -74t14 -66l4 -25h1q16 91 37 165l93 337h216v-680h-144v220q0 160 13 333q-21 -106 -41 -174z"/>
<glyph glyph-name="N" horiz-adv-x="706" unicode="N" d="M226 680l163 -266l100 -174h1q-6 134 -6 213v227h149v-680h-152l-161 262l-103 183h-1q7 -113 7 -222v-223h-150v680h153z"/>
<glyph glyph-name="O" horiz-adv-x="734" unicode="O" d="M189 340q0 -107 46 -166t132 -59t132 59t46 166t-47 167.5t-131 60.5q-85 0 -131.5 -60.5t-46.5 -167.5zM38 340q0 158 89.5 255t239.5 97t239.5 -97t89.5 -255q0 -159 -87 -255.5t-242 -96.5q-153 0 -241 97t-88 255z"/>
<glyph glyph-name="P" horiz-adv-x="643" unicode="P" d="M342 548h-118v-169h119q57 0 82 12q44 18 44 72q0 56 -45 75q-26 10 -82 10zM325 246h-101v-246h-151v680h260q102 0 159 -22q60 -24 94.5 -74.5t34.5 -122.5q0 -121 -95 -178q-64 -37 -201 -37z"/>
<glyph glyph-name="Q" horiz-adv-x="748" unicode="Q" d="M189 340q0 -107 46 -166t132 -59t132 59t46 166t-47 167.5t-131 60.5q-85 0 -131.5 -60.5t-46.5 -167.5zM38 340q0 158 89.5 255t239.5 97t239.5 -97t89.5 -255q0 -106 -39 -184l84 -78l-111 -107l-69 72q-82 -55 -194 -55q-153 0 -241 97t-88 255z"/>
<glyph glyph-name="R" horiz-adv-x="669" unicode="R" d="M223 548v-168h119q71 0 98 18q32 21 32 66t-32 66q-27 18 -98 18h-119zM324 250h-101v-250h-150v680h255q108 0 162 -21q131 -53 131 -195q0 -77 -38 -127t-105 -68l169 -269h-171z"/>
<glyph glyph-name="S" horiz-adv-x="641" unicode="S" d="M584 585l-96 -92q-77 74 -176 74q-48 0 -77.5 -18.5t-29.5 -50.5t22 -48.5t71 -25.5l110 -22q101 -20 153 -65t52 -130q0 -103 -80.5 -161t-205.5 -58q-106 0 -187 44t-120 98l105 90q80 -106 206 -106q59 0 92 21.5t33 59.5q0 33 -24.5 47.5t-77.5 23.5l-88 17 q-105 20 -161.5 65t-56.5 137q0 91 74.5 149t187.5 58q87 0 157.5 -29t116.5 -78z"/>
<glyph glyph-name="T" horiz-adv-x="566" unicode="T" d="M21 545v135h524v-135h-186v-545h-151v545h-187z"/>
<glyph glyph-name="U" horiz-adv-x="680" unicode="U" d="M613 680v-403q0 -74 -7.5 -114t-27.5 -73q-58 -102 -238 -102t-238 102q-20 33 -27.5 73t-7.5 114v403h151v-400q0 -70 13 -105q25 -57 109 -57q85 0 110 57q12 27 12 105v400h151z"/>
<glyph glyph-name="V" horiz-adv-x="616" unicode="V" d="M332 256l115 424h161l-205 -680h-192l-201 680h158l115 -423l25 -94h1q11 46 23 93z"/>
<glyph glyph-name="W" horiz-adv-x="951" unicode="W" d="M400 680h146l64 -234l66 -265h2q28 158 59 301l42 198h157l-166 -680h-175l-60 219q-13 48 -28 110.5t-23 100.5l-8 39h-1q-23 -109 -59 -245l-60 -224h-176l-165 680h158l46 -209l56 -297h1q29 135 66 279z"/>
<glyph glyph-name="X" horiz-adv-x="680" unicode="X" d="M429 363l259 -363h-187l-165 248l-170 -248h-174l257 354l-233 326h188l141 -207l136 207h183z"/>
<glyph glyph-name="Y" horiz-adv-x="642" unicode="Y" d="M394 271v-271h-151v272l-242 408h174l150 -261l154 261h173z"/>
<glyph glyph-name="Z" horiz-adv-x="597" unicode="Z" d="M556 136v-136h-520v122l322 423h-310v135h507v-111l-325 -433h326z"/>
<glyph glyph-name="bracketleft" horiz-adv-x="335" unicode="[" d="M303 -50v-108h-238v838h238v-108h-94v-622h94z"/>
<glyph glyph-name="backslash" horiz-adv-x="554" unicode="\" d="M21 680h152l360 -680h-153z"/>
<glyph glyph-name="bracketright" horiz-adv-x="335" unicode="]" d="M32 -158v108h94v622h-94v108h238v-838h-238z"/>
<glyph glyph-name="asciicircum" horiz-adv-x="455" unicode="^" d="M279 680l180 -374h-161l-78 167l-78 -167h-164l188 374h113z"/>
<glyph glyph-name="underscore" horiz-adv-x="684" unicode="_" d="M605 -192h-526v138h526v-138z"/>
<glyph glyph-name="grave" horiz-adv-x="500" unicode="`" d="M123 680h177l66 -145h-125z"/>
<glyph glyph-name="a" horiz-adv-x="534" unicode="a" d="M332 155v61q-17 -7 -53 -15l-33 -7q-34 -7 -47 -16q-20 -12 -20 -39q0 -56 71 -56q38 0 60 18t22 54zM468 340v-221q0 -23 5 -31.5t20 -8.5h7v-84q-32 -6 -68 -6q-79 0 -91 43h-1q-42 -44 -134 -44q-80 0 -126 40t-46 112q0 73 60 109q40 24 117 36l92 15q19 3 24.5 7 t5.5 15v8q0 56 -70 56q-79 0 -79 -69l-135 1q-1 81 57.5 124.5t162.5 43.5q199 0 199 -146z"/>
<glyph glyph-name="b" horiz-adv-x="601" unicode="b" d="M202 238q0 -62 30 -100.5t79 -38.5q51 0 79.5 37.5t28.5 101.5q0 66 -27.5 103t-80.5 37q-49 0 -79 -39t-30 -101zM345 -12q-92 0 -139 55v-43h-146v680h146v-248q20 22 57 39t82 17q101 0 161.5 -68.5t60.5 -181.5q0 -110 -61.5 -180t-160.5 -70z"/>
<glyph glyph-name="c" horiz-adv-x="533" unicode="c" d="M381 169l124 -51q-22 -56 -76.5 -93t-142.5 -37q-115 0 -183.5 65t-68.5 183q0 119 68.5 185.5t183.5 66.5q92 0 148 -42t76 -106l-126 -43q-22 81 -98 81q-51 0 -77.5 -36.5t-26.5 -103.5q0 -66 27 -102.5t77 -36.5q72 0 95 70z"/>
<glyph glyph-name="d" horiz-adv-x="601" unicode="d" d="M399 238q0 62 -30 100.5t-79 38.5q-51 0 -79.5 -37.5t-28.5 -101.5q0 -66 27.5 -103t80.5 -37q49 0 79 39t30 101zM256 488q93 0 139 -55v247h146v-680h-146v44q-20 -22 -57 -39t-83 -17q-101 0 -161 68.5t-60 181.5q0 110 61.5 180t160.5 70z"/>
<glyph glyph-name="e" horiz-adv-x="546" unicode="e" d="M277 387q-42 0 -71 -27.5t-31 -65.5h199q-2 42 -28 67.5t-69 25.5zM408 169l101 -68q-79 -113 -228 -113q-108 0 -177.5 67.5t-69.5 184.5q0 111 68.5 179.5t175.5 68.5q114 0 175.5 -72t61.5 -186q0 -21 -1 -30h-339q4 -42 34 -69.5t81 -27.5q80 0 118 66z"/>
<glyph glyph-name="f" horiz-adv-x="369" unicode="f" d="M352 476v-99h-108v-377h-146v377h-79v99h79v52q0 70 29 110q35 48 137 48q46 0 88 -6v-110q-18 2 -40 2q-38 0 -54 -13q-14 -12 -14 -43v-40h108z"/>
<glyph glyph-name="g" horiz-adv-x="599" unicode="g" d="M397 246q0 58 -31 94.5t-78 36.5q-49 0 -78 -36t-29 -95q0 -61 28 -96.5t79 -35.5q48 0 78.5 36.5t30.5 95.5zM46 -18l136 10q14 -75 104 -75q58 0 82.5 25.5t24.5 81.5v34q-44 -52 -141 -52q-98 0 -158 67t-60 175q0 101 62 170.5t158 69.5q92 0 140 -53v41h146v-427 q0 -129 -58.5 -185t-198.5 -56q-223 0 -237 174z"/>
<glyph glyph-name="h" horiz-adv-x="569" unicode="h" d="M514 270v-270h-146v240q0 26 -1 41.5t-5 33.5t-11.5 27t-22 15.5t-35.5 6.5q-44 0 -65.5 -31t-21.5 -82v-251h-146v680h146v-260q18 30 55 49t86 19q83 0 125 -46q24 -27 33 -61.5t9 -110.5z"/>
<glyph glyph-name="i" horiz-adv-x="267" unicode="i" d="M207 680v-143h-147v143h147zM207 476v-476h-147v476h147z"/>
<glyph glyph-name="j" horiz-adv-x="268" unicode="j" d="M208 680v-143h-148v143h148zM60 476h148v-501q0 -54 -13 -86q-16 -39 -52 -55t-104 -16q-31 0 -57 2v114h9q36 0 52.5 12t16.5 51v479z"/>
<glyph glyph-name="k" horiz-adv-x="566" unicode="k" d="M60 680h146v-361l152 157h193l-194 -185l208 -291h-180l-133 194l-46 -43v-151h-146v680z"/>
<glyph glyph-name="l" horiz-adv-x="274" unicode="l" d="M210 680v-680h-146v680h146z"/>
<glyph glyph-name="m" horiz-adv-x="863" unicode="m" d="M507 251v-251h-146v240q0 28 -0.5 42t-4.5 32.5t-11.5 27.5t-21.5 15.5t-35 6.5q-82 0 -82 -113v-251h-146v476h144v-59q18 31 55 51t84 20q110 0 148 -86q19 35 59.5 60.5t93.5 25.5q80 0 122 -46q24 -27 33 -61.5t9 -110.5v-270h-146v240q0 28 -0.5 41.5t-4 33t-11 28 t-21.5 15t-35 6.5q-83 0 -83 -113z"/>
<glyph glyph-name="n" horiz-adv-x="569" unicode="n" d="M514 270v-270h-146v240q0 26 -1 41.5t-5 33.5t-11.5 27t-22 15.5t-35.5 6.5q-44 0 -65.5 -31t-21.5 -82v-251h-146v476h144v-59q18 31 56 51t87 20q83 0 125 -46q24 -27 33 -61.5t9 -110.5z"/>
<glyph glyph-name="o" horiz-adv-x="573" unicode="o" d="M182 238q0 -66 27 -102.5t77 -36.5t77.5 36.5t27.5 102.5q0 67 -27 103.5t-78 36.5t-77.5 -36.5t-26.5 -103.5zM34 236q0 119 68.5 185.5t183.5 66.5t184 -66.5t69 -185.5q0 -118 -69 -183t-184 -65t-183.5 65t-68.5 183z"/>
<glyph glyph-name="p" horiz-adv-x="601" unicode="p" d="M202 238q0 -62 30 -100.5t79 -38.5q51 0 79.5 37.5t28.5 101.5q0 66 -27.5 103t-80.5 37q-49 0 -79 -39t-30 -101zM345 -12q-92 0 -139 55v-223h-146v656h146v-44q20 22 57 39t82 17q101 0 161.5 -68.5t60.5 -181.5q0 -110 -61.5 -180t-160.5 -70z"/>
<glyph glyph-name="q" horiz-adv-x="601" unicode="q" d="M399 238q0 62 -30 100.5t-79 38.5q-51 0 -79.5 -37.5t-28.5 -101.5q0 -66 27.5 -103t80.5 -37q49 0 79 39t30 101zM256 488q92 0 139 -55v43h146v-656h-146v224q-20 -22 -57 -39t-82 -17q-102 0 -162 68.5t-60 181.5q0 110 61.5 180t160.5 70z"/>
<glyph glyph-name="r" horiz-adv-x="377" unicode="r" d="M60 476h144v-65q11 29 48.5 52.5t85.5 23.5q11 0 17 -1v-140q-24 6 -47 6q-77 0 -95 -67q-7 -25 -7 -64v-221h-146v476z"/>
<glyph glyph-name="s" horiz-adv-x="499" unicode="s" d="M453 409l-82 -78q-57 52 -129 52q-27 0 -44.5 -9t-17.5 -26q0 -18 15.5 -26t55.5 -16l75 -16q68 -14 107.5 -45t39.5 -93q0 -79 -60 -121.5t-150 -42.5q-79 0 -144.5 30.5t-99.5 76.5l92 74q23 -32 64 -52.5t88 -20.5q74 0 74 42q0 13 -10 21t-20 10.5t-31 6.5l-75 15 q-77 14 -118 50q-41 35 -41 93q0 78 61 116t142 38q126 0 208 -79z"/>
<glyph glyph-name="t" horiz-adv-x="386" unicode="t" d="M355 104v-106q-40 -8 -88 -8q-111 0 -142 41q-20 27 -20 98v248h-92v99h92l2 191h144v-191h104v-99h-104v-211q0 -37 12 -49q14 -15 55 -15q23 0 37 2z"/>
<glyph glyph-name="u" horiz-adv-x="565" unicode="u" d="M55 206v270h146v-240q0 -28 0.5 -42t4.5 -32.5t11.5 -27.5t21.5 -15.5t35 -6.5q42 0 63.5 31t21.5 82v251h146v-476h-144v59q-18 -31 -55.5 -51t-85.5 -20q-81 0 -123 46q-24 27 -33 61.5t-9 110.5z"/>
<glyph glyph-name="v" horiz-adv-x="503" unicode="v" d="M343 476h151l-156 -476h-174l-154 476h153l65 -239l26 -106h1q11 56 25 109z"/>
<glyph glyph-name="w" horiz-adv-x="782" unicode="w" d="M462 0l-39 184q-4 19 -32 162h-1q-5 -23 -16 -80t-17 -84l-40 -182h-182l-120 476h150l38 -206q25 -137 27 -146h1q4 17 15 66.5t19 82.5l50 203h156l51 -205q7 -28 12.5 -52.5t11 -51.5t9.5 -43h1q8 37 29 150l39 202h144l-126 -476h-180z"/>
<glyph glyph-name="x" horiz-adv-x="495" unicode="x" d="M319 476h156l-149 -223l166 -253h-161l-86 143l-84 -143h-158l165 256l-147 220h164l69 -116z"/>
<glyph glyph-name="y" horiz-adv-x="503" unicode="y" d="M342 476h150l-164 -515q-25 -78 -50 -104q-38 -41 -141 -41q-45 0 -89 4v113q20 -1 44 -1h5q17 0 26.5 1t21.5 4.5t18 12t6 22.5q0 9 -15 58l-145 446h153l68 -254l24 -102h1q11 59 22 102z"/>
<glyph glyph-name="z" horiz-adv-x="501" unicode="z" d="M46 476h409v-104l-224 -251h234v-121h-429v103l229 252h-219v121z"/>
<glyph glyph-name="braceleft" horiz-adv-x="352" unicode="{" d="M182 262q33 -21 43 -48.5t10 -94.5v-80q0 -54 15.5 -74t69.5 -20v-103h-30q-112 0 -156 33t-44 138v101q0 33 -2 46.5t-15 26.5t-41 21v110q40 12 49 30t9 64v96q0 105 44 138.5t156 33.5h30v-103q-54 0 -69.5 -20t-15.5 -74v-76q0 -67 -10 -94.5t-43 -48.5v-2z"/>
<glyph glyph-name="bar" horiz-adv-x="274" unicode="|" d="M65 -158v838h144v-838h-144z"/>
<glyph glyph-name="braceright" horiz-adv-x="352" unicode="}" d="M170 262v2q-33 21 -43 48.5t-10 94.5v76q0 54 -15.5 74t-69.5 20v103h30q112 0 156 -33.5t44 -138.5v-96q0 -33 2 -46.5t15 -26.5t41 -21v-110q-40 -12 -49 -30t-9 -64v-101q0 -105 -44 -138t-156 -33h-30v103q54 0 69.5 20t15.5 74v80q0 67 10 94.5t43 48.5z"/>
<glyph glyph-name="asciitilde" horiz-adv-x="580" unicode="~" d="M486 404l67 -116q-34 -43 -81.5 -67.5t-91.5 -24.5q-48 0 -106 29q-60 30 -79 30t-39.5 -13.5t-54.5 -55.5l-73 118q23 36 69 67.5t100 31.5q50 0 121 -39q43 -23 66 -23q49 0 102 63z"/>
<glyph glyph-name="uni00A0" horiz-adv-x="200" unicode=" "/>
<glyph glyph-name="exclamdown" horiz-adv-x="261" unicode="¡" d="M203 318h-146v158h146v-158zM190 263l12 -195v-272h-144v272l14 195h118z"/>
<glyph glyph-name="cent" horiz-adv-x="545" unicode="¢" d="M386 169l124 -51q-41 -105 -162 -125v-105h-115v105q-90 15 -142 78t-52 165t52 166.5t142 80.5v97h115v-97q67 -13 108.5 -51.5t58.5 -91.5l-126 -43q-22 81 -98 81q-51 0 -77.5 -36.5t-26.5 -103.5q0 -66 27 -102.5t77 -36.5q72 0 95 70z"/>
<glyph glyph-name="sterling" horiz-adv-x="579" unicode="£" d="M542 481l-129 -24q-2 51 -17 77.5t-55 26.5q-69 0 -69 -103q0 -21 2 -51h138v-127h-131q0 -6 0.5 -18t0.5 -18q0 -78 -33 -107h279v-137h-485v122q54 3 77 26.5t23 91.5q0 8 -2 40h-98v127h88q-2 22 -2 57q0 46 10.5 84.5t33 71.5t64.5 51.5t100 18.5q201 0 205 -209z "/>
<glyph glyph-name="currency" horiz-adv-x="569" unicode="¤" d="M204 279q0 -36 23 -60.5t58 -24.5q36 0 59 24.5t23 60.5q0 37 -22.5 60.5t-59.5 23.5q-35 0 -58 -23.5t-23 -60.5zM78 279q0 51 21 92l-16 14l-47 44l100 100l60 -61q39 19 89 19t92 -18l58 58l97 -97l-59 -58q20 -43 20 -93q0 -48 -19 -92q35 -31 58 -56l-97 -98l-57 57 q-40 -18 -93 -18t-92 18l-58 -58l-98 98l59 58q-18 39 -18 91z"/>
<glyph glyph-name="yen" horiz-adv-x="626" unicode="¥" d="M73 269v123h102l-143 288h167l115 -258l118 258h166l-154 -288h102v-123h-165v-54h165v-124h-165v-91h-147v91h-161v124h161v54h-161z"/>
<glyph glyph-name="brokenbar" horiz-adv-x="278" unicode="¦" d="M67 -158v323h144v-323h-144zM67 357v323h144v-323h-144z"/>
<glyph glyph-name="section" horiz-adv-x="531" unicode="§" d="M261 265l52 -22q33 17 33 52q0 22 -18.5 38t-56.5 32l-42 17q-16 -6 -27 -20.5t-11 -31.5q0 -22 16.5 -36t53.5 -29zM126 436q-54 38 -54 106q0 75 60.5 113t142.5 38q126 0 208 -79l-82 -78q-57 52 -128 52q-28 0 -45.5 -9.5t-17.5 -26.5q0 -18 15.5 -28t68.5 -33 l59 -25q128 -55 128 -154q0 -73 -64 -124q68 -41 68 -113q0 -78 -61.5 -120t-151.5 -42q-76 0 -141.5 30.5t-99.5 76.5l92 74q23 -32 64 -52.5t88 -20.5q74 0 74 42q0 6 -2 11t-6.5 9t-8 7.5t-11.5 7.5t-12 5.5t-14 6t-13 5.5l-58 25q-42 18 -63 29t-51 33t-43.5 50.5 t-13.5 66.5q0 78 73 117z"/>
<glyph glyph-name="dieresis" horiz-adv-x="500" unicode="¨" d="M402 667v-116h-117v116h117zM217 667v-116h-117v116h117z"/>
<glyph glyph-name="copyright" horiz-adv-x="762" unicode="©" d="M634 349q0 109 -72.5 183.5t-180.5 74.5t-180.5 -75t-72.5 -183t72.5 -183t180.5 -75t180.5 74.5t72.5 183.5zM723 349q0 -144 -99 -243.5t-243 -99.5t-243 99.5t-99 243.5t99 243.5t243 99.5t243 -99.5t99 -243.5zM462 297l82 -34q-49 -112 -161 -112q-82 0 -130 53.5 t-48 143.5q0 91 48.5 146t129.5 55q69 0 107.5 -37t53.5 -84l-84 -34q-18 72 -77 72q-38 0 -60 -31t-22 -86q0 -54 22.5 -84.5t59.5 -30.5q54 0 79 63z"/>
<glyph glyph-name="ordfeminine" horiz-adv-x="394" unicode="ª" d="M238 470v38l-27 -6l-22 -4q-29 -5 -42 -13t-13 -26q0 -39 47 -39q26 0 41.5 12.5t15.5 37.5zM330 596v-154q0 -16 3.5 -21.5t13.5 -5.5h5v-54q-30 -4 -47 -4q-52 0 -61 26q-33 -27 -91 -27q-52 0 -83.5 26.5t-31.5 75.5q0 45 28 66t86 32l67 11q13 3 16 5.5t3 10.5v4 q0 38 -48 38q-52 0 -53 -48l-90 3q-1 55 40 83.5t109 28.5q66 0 100 -22t34 -74z"/>
<glyph glyph-name="guillemotleft" horiz-adv-x="502" unicode="«" d="M222 59l-181 149v142l181 151v-161l-76 -59l76 -63v-159zM445 59l-181 149v142l181 151v-161l-75 -59l75 -63v-159z"/>
<glyph glyph-name="logicalnot" horiz-adv-x="617" unicode="¬" d="M557 454v-312h-124v197h-395v115h519z"/>
<glyph glyph-name="uni00AD" horiz-adv-x="397" unicode="­" d="M341 225h-284v138h284v-138z"/>
<glyph glyph-name="registered" horiz-adv-x="762" unicode="®" d="M634 349q0 109 -72.5 183.5t-180.5 74.5t-180.5 -75t-72.5 -183t72.5 -183t180.5 -75t180.5 74.5t72.5 183.5zM723 349q0 -144 -99 -243.5t-243 -99.5t-243 99.5t-99 243.5t99 243.5t243 99.5t243 -99.5t99 -243.5zM315 376h62q35 0 51 7q15 11 15 32q0 24 -15 33 q-10 5 -51 5h-62v-77zM315 297v-127h-92v365h158q60 0 89 -12q31 -14 49 -42.5t18 -65.5q0 -88 -78 -112l98 -133h-117l-87 127h-38z"/>
<glyph glyph-name="macron" horiz-adv-x="500" unicode="¯" d="M97 551v123h306v-123h-306z"/>
<glyph glyph-name="degree" horiz-adv-x="450" unicode="°" d="M149 498q0 -31 22.5 -53.5t53.5 -22.5t53.5 22.5t22.5 53.5t-22.5 53.5t-53.5 22.5t-53.5 -22.5t-22.5 -53.5zM31 498q0 81 56.5 137.5t137.5 56.5t137.5 -56.5t56.5 -137.5t-56.5 -137.5t-137.5 -56.5t-137.5 56.5t-56.5 137.5z"/>
<glyph glyph-name="plusminus" horiz-adv-x="696" unicode="±" d="M644 0h-592v126h592v-126zM418 297v-134h-139v134h-227v138h227v163h139v-163h226v-138h-226z"/>
<glyph glyph-name="twosuperior" horiz-adv-x="409" unicode="²" d="M167 494l-109 14q-8 24 -8 52q0 58 42 95t117 37q70 0 110.5 -35.5t40.5 -95.5q0 -74 -66 -137q-39 -35 -71 -57h133v-92h-306v69q65 45 130 102q36 31 54.5 57t18.5 55q0 45 -49 45q-23 0 -36 -15.5t-13 -38.5q0 -28 12 -55z"/>
<glyph glyph-name="threesuperior" horiz-adv-x="395" unicode="³" d="M34 398l102 17q2 -62 58 -62q54 0 54 46q0 33 -34 42q-13 4 -38 4h-30v80h33q29 0 43 8q20 11 20 36q0 37 -49 37q-53 0 -53 -53l-96 16q0 48 41.5 85.5t111.5 37.5t109 -31t39 -80q0 -57 -49 -87q60 -34 60 -101q0 -56 -43 -93t-119 -37q-75 0 -116.5 36.5t-43.5 98.5z "/>
<glyph glyph-name="acute" horiz-adv-x="500" unicode="´" d="M197 680h177l-118 -145h-125z"/>
<glyph glyph-name="mu" horiz-adv-x="559" unicode="µ" d="M62 -180v656h146v-240q0 -28 0.5 -42t4.5 -32.5t11.5 -27.5t21.5 -15.5t35 -6.5q42 0 63.5 31t21.5 82v251h146v-476h-144v59q-31 -63 -110 -63q-23 0 -50 8v-184h-146z"/>
<glyph glyph-name="paragraph" horiz-adv-x="743" unicode="¶" d="M409 -128h-124v392h-19q-110 0 -171 48q-68 54 -68 160q0 111 76 165q61 43 179 43h424v-130h-79v-678h-124v678h-94v-678z"/>
<glyph glyph-name="periodcentered" horiz-adv-x="272" unicode="·" d="M216 199h-159v178h159v-178z"/>
<glyph glyph-name="cedilla" horiz-adv-x="500" unicode="¸" d="M173 -51l49 54h71l-29 -33q44 0 67.5 -22.5t23.5 -54.5q0 -41 -31 -64.5t-76 -23.5q-40 0 -74 17l24 62q14 -11 38 -11q32 0 32 24q0 23 -30 23q-25 0 -39 -14z"/>
<glyph glyph-name="onesuperior" horiz-adv-x="309" unicode="¹" d="M251 680v-406h-112v230h-113v81h13q48 0 75 19q32 24 34 76h103z"/>
<glyph glyph-name="ordmasculine" horiz-adv-x="377" unicode="º" d="M120 523q0 -44 18.5 -69.5t50.5 -25.5q31 0 49 25.5t18 69.5t-18 69.5t-49 25.5q-33 0 -51 -26t-18 -69zM36 523q0 78 41 123.5t112 45.5q70 0 111 -45.5t41 -123.5q0 -79 -40.5 -124t-111.5 -45q-72 0 -112.5 45t-40.5 124z"/>
<glyph glyph-name="guillemotright" horiz-adv-x="502" unicode="»" d="M461 208l-181 -149v159l76 63l-76 59v161l181 -151v-142zM238 208l-181 -149v159l75 63l-75 59v161l181 -151v-142z"/>
<glyph glyph-name="onequarter" horiz-adv-x="858" unicode="¼" d="M253 680v-406h-112v230h-113v81h13q48 0 75 19q32 24 34 76h103zM632 173h33v46l2 73h-1q-20 -32 -34 -52l-13 -19l-34 -47v-1h47zM766 173h58v-89h-58v-84h-101v84h-189v75l183 255h107v-241zM660 680l-352 -680h-129l354 680h127z"/>
<glyph glyph-name="onehalf" horiz-adv-x="916" unicode="½" d="M253 680v-406h-112v230h-113v81h13q48 0 75 19q32 24 34 76h103zM660 680l-352 -680h-129l354 680h127zM686 219l-109 14q-8 24 -8 52q0 58 42 95t117 37q70 0 110.5 -35.5t40.5 -95.5q0 -74 -66 -137q-39 -35 -71 -57h133v-92h-306v69q65 45 130 102q36 31 54.5 57 t18.5 55q0 45 -49 45q-23 0 -36 -15.5t-13 -38.5q0 -28 12 -55z"/>
<glyph glyph-name="threequarters" horiz-adv-x="921" unicode="¾" d="M698 173h33v46l2 73h-1q-20 -32 -34 -52l-13 -19l-34 -47v-1h47zM832 173h58v-89h-58v-84h-101v84h-189v75l183 255h107v-241zM726 680l-352 -680h-129l354 680h127zM30 398l102 17q2 -62 58 -62q54 0 54 46q0 33 -34 42q-13 4 -38 4h-30v80h33q29 0 43 8q20 11 20 36 q0 37 -49 37q-53 0 -53 -53l-96 16q0 48 41.5 85.5t111.5 37.5t109 -31t39 -80q0 -57 -49 -87q60 -34 60 -101q0 -56 -43 -93t-119 -37q-75 0 -116.5 36.5t-43.5 98.5z"/>
<glyph glyph-name="questiondown" horiz-adv-x="504" unicode="¿" d="M347 332h-152v144h152v-144zM321 67l148 -13q9 -35 9 -68q0 -87 -60 -144.5t-163 -57.5q-117 0 -173 57.5t-56 142.5q0 109 87 177l37 29q32 25 43 41t11 45v19h136v-25q0 -52 -15.5 -84.5t-62.5 -72.5l-38 -32q-50 -40 -50 -95q0 -38 21 -58t60 -20q42 0 62 25t20 64 q0 36 -16 70z"/>
<glyph glyph-name="Agrave" horiz-adv-x="646" unicode="À" d="M401 259l-56 192l-23 88h-1q-12 -45 -25 -89l-58 -191h163zM201 135l-39 -135h-159l229 680h183l227 -680h-162l-40 135h-239zM164 909h177l66 -145h-125z"/>
<glyph glyph-name="Aacute" horiz-adv-x="646" unicode="Á" d="M401 259l-56 192l-23 88h-1q-12 -45 -25 -89l-58 -191h163zM201 135l-39 -135h-159l229 680h183l227 -680h-162l-40 135h-239zM319 909h177l-118 -145h-125z"/>
<glyph glyph-name="Acircumflex" horiz-adv-x="646" unicode="Â" d="M401 259l-56 192l-23 88h-1q-12 -45 -25 -89l-58 -191h163zM201 135l-39 -135h-159l229 680h183l227 -680h-162l-40 135h-239zM332 828l-51 -64h-115l111 145h105l118 -145h-118z"/>
<glyph glyph-name="Atilde" horiz-adv-x="646" unicode="Ã" d="M401 259l-56 192l-23 88h-1q-12 -45 -25 -89l-58 -191h163zM201 135l-39 -135h-159l229 680h183l227 -680h-162l-40 135h-239zM220 766l-84 35q8 37 41.5 75.5t83.5 38.5q27 0 71 -22q35 -19 58 -19q29 0 44 37l84 -34q-21 -53 -49.5 -84.5t-78.5 -31.5q-33 0 -73 19 q-46 23 -58 23q-25 0 -39 -37z"/>
<glyph glyph-name="Adieresis" horiz-adv-x="646" unicode="Ä" d="M401 259l-56 192l-23 88h-1q-12 -45 -25 -89l-58 -191h163zM201 135l-39 -135h-159l229 680h183l227 -680h-162l-40 135h-239zM483 894v-116h-117v116h117zM298 894v-116h-117v116h117z"/>
<glyph glyph-name="Aring" horiz-adv-x="646" unicode="Å" d="M401 259l-56 192l-23 88h-1q-12 -45 -25 -89l-58 -191h163zM201 135l-39 -135h-159l229 680h183l227 -680h-162l-40 135h-239zM294 845q0 -15 10.5 -25t24.5 -10t24.5 10t10.5 25t-10.5 25t-24.5 10t-24.5 -10t-10.5 -25zM217 845q0 48 32.5 80t80.5 32t80.5 -32 t32.5 -80t-32.5 -80t-80.5 -32t-80.5 32t-32.5 80z"/>
<glyph glyph-name="AE" horiz-adv-x="957" unicode="Æ" d="M920 0h-499v155h-199l-86 -155h-160l376 680h545v-133h-328v-134h296v-132h-296v-147h351v-134zM421 288v148l3 98h-1q-25 -46 -43 -82l-86 -164h127z"/>
<glyph glyph-name="Ccedilla" horiz-adv-x="666" unicode="Ç" d="M515 208l124 -59q-78 -153 -258 -160l-15 -19q44 0 67.5 -22.5t23.5 -54.5q0 -41 -31 -64.5t-76 -23.5q-40 0 -74 17l24 62q14 -11 38 -11q32 0 32 24q0 23 -30 23q-25 0 -39 -14l-26 43l38 42q-129 16 -202 110.5t-73 238.5q0 158 89 255t236 97q106 0 176.5 -49 t104.5 -125l-126 -53q-43 103 -153 103q-84 0 -130 -60.5t-46 -167.5t45.5 -166t130.5 -59q107 0 150 93z"/>
<glyph glyph-name="Egrave" horiz-adv-x="611" unicode="È" d="M551 547h-328v-134h296v-132h-296v-147h351v-134h-501v680h478v-133zM162 909h177l66 -145h-125z"/>
<glyph glyph-name="Eacute" horiz-adv-x="611" unicode="É" d="M551 547h-328v-134h296v-132h-296v-147h351v-134h-501v680h478v-133zM300 909h177l-118 -145h-125z"/>
<glyph glyph-name="Ecircumflex" horiz-adv-x="611" unicode="Ê" d="M551 547h-328v-134h296v-132h-296v-147h351v-134h-501v680h478v-133zM317 828l-51 -64h-115l111 145h105l118 -145h-118z"/>
<glyph glyph-name="Edieresis" horiz-adv-x="611" unicode="Ë" d="M475 894v-116h-117v116h117zM290 894v-116h-117v116h117zM551 547h-328v-134h296v-132h-296v-147h351v-134h-501v680h478v-133z"/>
<glyph glyph-name="Igrave" horiz-adv-x="297" unicode="Ì" d="M-17 909h177l66 -145h-125zM224 680v-680h-151v680h151z"/>
<glyph glyph-name="Iacute" horiz-adv-x="297" unicode="Í" d="M149 909h177l-118 -145h-125zM224 680v-680h-151v680h151z"/>
<glyph glyph-name="Icircumflex" horiz-adv-x="297" unicode="Î" d="M154 828l-51 -64h-115l111 145h105l118 -145h-118zM224 680v-680h-151v680h151z"/>
<glyph glyph-name="Idieresis" horiz-adv-x="297" unicode="Ï" d="M308 903v-129h-131v129h131zM121 903v-129h-131v129h131zM224 680v-680h-151v680h151z"/>
<glyph glyph-name="Eth" horiz-adv-x="712" unicode="Ð" d="M235 537v-131h167v-134h-167v-131h69q43 0 66 1.5t49.5 9.5t42.5 24q54 54 54 162q0 111 -61 164q-25 21 -61 28t-101 7h-58zM291 0h-206v272h-66v134h66v274h250q119 0 181 -31q76 -37 116 -119.5t40 -187.5q0 -173 -101 -271q-34 -34 -80 -50t-83.5 -18.5t-116.5 -2.5z "/>
<glyph glyph-name="Ntilde" horiz-adv-x="706" unicode="Ñ" d="M226 680l163 -266l100 -174h1q-6 134 -6 213v227h149v-680h-152l-161 262l-103 183h-1q7 -113 7 -222v-223h-150v680h153zM256 766l-84 35q8 37 41.5 75.5t83.5 38.5q27 0 71 -22q35 -19 58 -19q29 0 44 37l84 -34q-21 -53 -49.5 -84.5t-78.5 -31.5q-33 0 -73 19 q-46 23 -58 23q-25 0 -39 -37z"/>
<glyph glyph-name="Ograve" horiz-adv-x="734" unicode="Ò" d="M189 340q0 -107 46 -166t132 -59t132 59t46 166t-47 167.5t-131 60.5q-85 0 -131.5 -60.5t-46.5 -167.5zM38 340q0 158 89.5 255t239.5 97t239.5 -97t89.5 -255q0 -159 -87 -255.5t-242 -96.5q-153 0 -241 97t-88 255zM209 909h177l66 -145h-125z"/>
<glyph glyph-name="Oacute" horiz-adv-x="734" unicode="Ó" d="M189 340q0 -107 46 -166t132 -59t132 59t46 166t-47 167.5t-131 60.5q-85 0 -131.5 -60.5t-46.5 -167.5zM38 340q0 158 89.5 255t239.5 97t239.5 -97t89.5 -255q0 -159 -87 -255.5t-242 -96.5q-153 0 -241 97t-88 255zM354 909h177l-118 -145h-125z"/>
<glyph glyph-name="Ocircumflex" horiz-adv-x="734" unicode="Ô" d="M189 340q0 -107 46 -166t132 -59t132 59t46 166t-47 167.5t-131 60.5q-85 0 -131.5 -60.5t-46.5 -167.5zM38 340q0 158 89.5 255t239.5 97t239.5 -97t89.5 -255q0 -159 -87 -255.5t-242 -96.5q-153 0 -241 97t-88 255zM370 828l-51 -64h-115l111 145h105l118 -145h-118z "/>
<glyph glyph-name="Otilde" horiz-adv-x="734" unicode="Õ" d="M189 340q0 -107 46 -166t132 -59t132 59t46 166t-47 167.5t-131 60.5q-85 0 -131.5 -60.5t-46.5 -167.5zM38 340q0 158 89.5 255t239.5 97t239.5 -97t89.5 -255q0 -159 -87 -255.5t-242 -96.5q-153 0 -241 97t-88 255zM260 766l-84 35q8 37 41.5 75.5t83.5 38.5 q27 0 71 -22q35 -19 58 -19q29 0 44 37l84 -34q-21 -53 -49.5 -84.5t-78.5 -31.5q-33 0 -73 19q-46 23 -58 23q-25 0 -39 -37z"/>
<glyph glyph-name="Odieresis" horiz-adv-x="734" unicode="Ö" d="M189 340q0 -107 46 -166t132 -59t132 59t46 166t-47 167.5t-131 60.5q-85 0 -131.5 -60.5t-46.5 -167.5zM38 340q0 158 89.5 255t239.5 97t239.5 -97t89.5 -255q0 -159 -87 -255.5t-242 -96.5q-153 0 -241 97t-88 255zM519 894v-116h-117v116h117zM334 894v-116h-117v116 h117z"/>
<glyph glyph-name="multiply" horiz-adv-x="663" unicode="×" d="M132 596l200 -198l198 198l99 -99l-198 -198l198 -200l-99 -98l-198 199l-200 -200l-99 99l200 200l-199 198z"/>
<glyph glyph-name="Oslash" horiz-adv-x="741" unicode="Ø" d="M195 340q0 -38 6 -71l251 281q-35 18 -79 18q-85 0 -131.5 -60.5t-46.5 -167.5zM551 340q0 53 -12 95l-263 -294q40 -26 97 -26q86 0 132 59t46 166zM44 340q0 158 89.5 255t239.5 97q94 0 169 -42l75 84l104 -95l-77 -86q58 -89 58 -213q0 -159 -87 -255.5t-242 -96.5 q-112 0 -188 52l-74 -83l-107 93l85 95q-45 81 -45 195z"/>
<glyph glyph-name="Ugrave" horiz-adv-x="680" unicode="Ù" d="M613 680v-403q0 -74 -7.5 -114t-27.5 -73q-58 -102 -238 -102t-238 102q-20 33 -27.5 73t-7.5 114v403h151v-400q0 -70 13 -105q25 -57 109 -57q85 0 110 57q12 27 12 105v400h151zM173 909h177l66 -145h-125z"/>
<glyph glyph-name="Uacute" horiz-adv-x="680" unicode="Ú" d="M613 680v-403q0 -74 -7.5 -114t-27.5 -73q-58 -102 -238 -102t-238 102q-20 33 -27.5 73t-7.5 114v403h151v-400q0 -70 13 -105q25 -57 109 -57q85 0 110 57q12 27 12 105v400h151zM325 909h177l-118 -145h-125z"/>
<glyph glyph-name="Ucircumflex" horiz-adv-x="680" unicode="Û" d="M613 680v-403q0 -74 -7.5 -114t-27.5 -73q-58 -102 -238 -102t-238 102q-20 33 -27.5 73t-7.5 114v403h151v-400q0 -70 13 -105q25 -57 109 -57q85 0 110 57q12 27 12 105v400h151zM343 828l-51 -64h-115l111 145h105l118 -145h-118z"/>
<glyph glyph-name="Udieresis" horiz-adv-x="680" unicode="Ü" d="M613 680v-403q0 -74 -7.5 -114t-27.5 -73q-58 -102 -238 -102t-238 102q-20 33 -27.5 73t-7.5 114v403h151v-400q0 -70 13 -105q25 -57 109 -57q85 0 110 57q12 27 12 105v400h151zM494 894v-116h-117v116h117zM309 894v-116h-117v116h117z"/>
<glyph glyph-name="Yacute" horiz-adv-x="642" unicode="Ý" d="M394 271v-271h-151v272l-242 408h174l150 -261l154 261h173zM318 909h177l-118 -145h-125z"/>
<glyph glyph-name="Thorn" horiz-adv-x="650" unicode="Þ" d="M342 467h-118v-169h119q56 0 82 11q44 20 44 73q0 56 -45 75q-26 10 -82 10zM224 680v-81h109q102 0 159 -22q60 -24 94.5 -74.5t34.5 -122.5q0 -121 -95 -178q-64 -37 -201 -37h-101v-165h-151v680h151z"/>
<glyph glyph-name="germandbls" horiz-adv-x="532" unicode="ß" d="M252 -2v110h5q55 0 74 28t19 91q0 58 -19.5 83.5t-78.5 25.5v103q76 0 76 74q0 66 -62 66q-32 0 -47 -21q-13 -17 -13 -73v-485h-146v484q0 109 47 156q51 51 161 51q103 0 152.5 -45t49.5 -114q0 -91 -71 -126q44 -18 70 -58t26 -124q0 -118 -49.5 -173t-153.5 -55 q-18 0 -40 2z"/>
<glyph glyph-name="agrave" horiz-adv-x="534" unicode="à" d="M332 155v61q-17 -7 -53 -15l-33 -7q-34 -7 -47 -16q-20 -12 -20 -39q0 -56 71 -56q38 0 60 18t22 54zM468 340v-221q0 -23 5 -31.5t20 -8.5h7v-84q-32 -6 -68 -6q-79 0 -91 43h-1q-42 -44 -134 -44q-80 0 -126 40t-46 112q0 73 60 109q40 24 117 36l92 15q19 3 24.5 7 t5.5 15v8q0 56 -70 56q-79 0 -79 -69l-135 1q-1 81 57.5 124.5t162.5 43.5q199 0 199 -146zM114 680h177l66 -145h-125z"/>
<glyph glyph-name="aacute" horiz-adv-x="534" unicode="á" d="M332 155v61q-17 -7 -53 -15l-33 -7q-34 -7 -47 -16q-20 -12 -20 -39q0 -56 71 -56q38 0 60 18t22 54zM468 340v-221q0 -23 5 -31.5t20 -8.5h7v-84q-32 -6 -68 -6q-79 0 -91 43h-1q-42 -44 -134 -44q-80 0 -126 40t-46 112q0 73 60 109q40 24 117 36l92 15q19 3 24.5 7 t5.5 15v8q0 56 -70 56q-79 0 -79 -69l-135 1q-1 81 57.5 124.5t162.5 43.5q199 0 199 -146zM251 680h177l-118 -145h-125z"/>
<glyph glyph-name="acircumflex" horiz-adv-x="534" unicode="â" d="M332 155v61q-17 -7 -53 -15l-33 -7q-34 -7 -47 -16q-20 -12 -20 -39q0 -56 71 -56q38 0 60 18t22 54zM468 340v-221q0 -23 5 -31.5t20 -8.5h7v-84q-32 -6 -68 -6q-79 0 -91 43h-1q-42 -44 -134 -44q-80 0 -126 40t-46 112q0 73 60 109q40 24 117 36l92 15q19 3 24.5 7 t5.5 15v8q0 56 -70 56q-79 0 -79 -69l-135 1q-1 81 57.5 124.5t162.5 43.5q199 0 199 -146zM271 599l-51 -64h-115l111 145h105l118 -145h-118z"/>
<glyph glyph-name="atilde" horiz-adv-x="534" unicode="ã" d="M332 155v61q-17 -7 -53 -15l-33 -7q-34 -7 -47 -16q-20 -12 -20 -39q0 -56 71 -56q38 0 60 18t22 54zM468 340v-221q0 -23 5 -31.5t20 -8.5h7v-84q-32 -6 -68 -6q-79 0 -91 43h-1q-42 -44 -134 -44q-80 0 -126 40t-46 112q0 73 60 109q40 24 117 36l92 15q19 3 24.5 7 t5.5 15v8q0 56 -70 56q-79 0 -79 -69l-135 1q-1 81 57.5 124.5t162.5 43.5q199 0 199 -146zM161 535l-84 35q8 37 41.5 75.5t83.5 38.5q27 0 71 -22q35 -19 58 -19q29 0 44 37l84 -34q-21 -53 -49.5 -84.5t-78.5 -31.5q-33 0 -73 19q-46 23 -58 23q-25 0 -39 -37z"/>
<glyph glyph-name="adieresis" horiz-adv-x="534" unicode="ä" d="M332 155v61q-17 -7 -53 -15l-33 -7q-34 -7 -47 -16q-20 -12 -20 -39q0 -56 71 -56q38 0 60 18t22 54zM468 340v-221q0 -23 5 -31.5t20 -8.5h7v-84q-32 -6 -68 -6q-79 0 -91 43h-1q-42 -44 -134 -44q-80 0 -126 40t-46 112q0 73 60 109q40 24 117 36l92 15q19 3 24.5 7 t5.5 15v8q0 56 -70 56q-79 0 -79 -69l-135 1q-1 81 57.5 124.5t162.5 43.5q199 0 199 -146zM427 667v-116h-117v116h117zM242 667v-116h-117v116h117z"/>
<glyph glyph-name="aring" horiz-adv-x="534" unicode="å" d="M332 155v61q-17 -7 -53 -15l-33 -7q-34 -7 -47 -16q-20 -12 -20 -39q0 -56 71 -56q38 0 60 18t22 54zM468 340v-221q0 -23 5 -31.5t20 -8.5h7v-84q-32 -6 -68 -6q-79 0 -91 43h-1q-42 -44 -134 -44q-80 0 -126 40t-46 112q0 73 60 109q40 24 117 36l92 15q19 3 24.5 7 t5.5 15v8q0 56 -70 56q-79 0 -79 -69l-135 1q-1 81 57.5 124.5t162.5 43.5q199 0 199 -146zM234 630q0 -15 10.5 -25t24.5 -10t24.5 10t10.5 25t-10.5 25t-24.5 10t-24.5 -10t-10.5 -25zM157 630q0 48 32.5 80t80.5 32t80.5 -32t32.5 -80t-32.5 -80t-80.5 -32t-80.5 32 t-32.5 80z"/>
<glyph glyph-name="ae" horiz-adv-x="843" unicode="æ" d="M574 387q-42 0 -71 -27.5t-31 -65.5h199q-2 42 -28 67.5t-69 25.5zM332 155v61q-17 -7 -53 -15l-33 -7q-34 -7 -47 -16q-20 -12 -20 -39q0 -56 71 -56q38 0 60 18t22 54zM403 50q-22 -23 -71.5 -42.5t-118.5 -19.5q-84 0 -131.5 40t-47.5 112q0 73 60 109q40 24 117 36 l92 15q19 3 24.5 7t5.5 15v8q0 56 -70 56q-79 0 -79 -69l-135 1q-1 81 57.5 124.5t162.5 43.5q110 0 159 -43q68 45 147 45q114 0 175.5 -72t61.5 -186q0 -21 -1 -30h-339q4 -42 34 -69.5t81 -27.5q80 0 118 66l101 -68q-79 -113 -228 -113q-108 0 -175 62z"/>
<glyph glyph-name="ccedilla" horiz-adv-x="533" unicode="ç" d="M381 169l124 -51q-21 -53 -71.5 -89.5t-130.5 -39.5v-1l-14 -18q44 0 67.5 -22.5t23.5 -54.5q0 -41 -31 -64.5t-76 -23.5q-40 0 -74 17l24 62q14 -11 38 -11q32 0 32 24q0 23 -30 23q-25 0 -39 -14l-26 43l38 43q-94 13 -148 76t-54 168q0 119 68.5 185.5t183.5 66.5 q92 0 148 -42t76 -106l-126 -43q-22 81 -98 81q-51 0 -77.5 -36.5t-26.5 -103.5q0 -66 27 -102.5t77 -36.5q72 0 95 70z"/>
<glyph glyph-name="egrave" horiz-adv-x="546" unicode="è" d="M132 680h177l66 -145h-125zM277 387q-42 0 -71 -27.5t-31 -65.5h199q-2 42 -28 67.5t-69 25.5zM408 169l101 -68q-79 -113 -228 -113q-108 0 -177.5 67.5t-69.5 184.5q0 111 68.5 179.5t175.5 68.5q114 0 175.5 -72t61.5 -186q0 -21 -1 -30h-339q4 -42 34 -69.5t81 -27.5 q80 0 118 66z"/>
<glyph glyph-name="eacute" horiz-adv-x="546" unicode="é" d="M269 680h177l-118 -145h-125zM277 387q-42 0 -71 -27.5t-31 -65.5h199q-2 42 -28 67.5t-69 25.5zM408 169l101 -68q-79 -113 -228 -113q-108 0 -177.5 67.5t-69.5 184.5q0 111 68.5 179.5t175.5 68.5q114 0 175.5 -72t61.5 -186q0 -21 -1 -30h-339q4 -42 34 -69.5 t81 -27.5q80 0 118 66z"/>
<glyph glyph-name="ecircumflex" horiz-adv-x="546" unicode="ê" d="M282 599l-51 -64h-115l111 145h105l118 -145h-118zM277 387q-42 0 -71 -27.5t-31 -65.5h199q-2 42 -28 67.5t-69 25.5zM408 169l101 -68q-79 -113 -228 -113q-108 0 -177.5 67.5t-69.5 184.5q0 111 68.5 179.5t175.5 68.5q114 0 175.5 -72t61.5 -186q0 -21 -1 -30h-339 q4 -42 34 -69.5t81 -27.5q80 0 118 66z"/>
<glyph glyph-name="edieresis" horiz-adv-x="546" unicode="ë" d="M434 667v-116h-117v116h117zM249 667v-116h-117v116h117zM277 387q-42 0 -71 -27.5t-31 -65.5h199q-2 42 -28 67.5t-69 25.5zM408 169l101 -68q-79 -113 -228 -113q-108 0 -177.5 67.5t-69.5 184.5q0 111 68.5 179.5t175.5 68.5q114 0 175.5 -72t61.5 -186q0 -21 -1 -30 h-339q4 -42 34 -69.5t81 -27.5q80 0 118 66z"/>
<glyph glyph-name="igrave" horiz-adv-x="267" unicode="ì" d="M-35 680h177l66 -145h-125zM207 476v-476h-147v476h147z"/>
<glyph glyph-name="iacute" horiz-adv-x="267" unicode="í" d="M132 680h177l-118 -145h-125zM207 476v-476h-147v476h147z"/>
<glyph glyph-name="icircumflex" horiz-adv-x="267" unicode="î" d="M138 599l-51 -64h-115l111 145h105l118 -145h-118zM207 476v-476h-147v476h147z"/>
<glyph glyph-name="idieresis" horiz-adv-x="267" unicode="ï" d="M290 667v-116h-117v116h117zM105 667v-116h-117v116h117zM207 476v-476h-147v476h147z"/>
<glyph glyph-name="eth" horiz-adv-x="577" unicode="ð" d="M182 238q0 -66 27 -102.5t77 -36.5t77.5 36.5t27.5 102.5q0 67 -27 103.5t-78 36.5t-77.5 -36.5t-26.5 -103.5zM34 236q0 119 68.5 185.5t183.5 66.5q38 0 67 -7q-15 39 -33 61l-140 -44l-28 87l107 33q-8 11 -38 37l109 54q29 -24 53 -54l112 35l27 -86l-80 -25 q98 -152 98 -321q0 -119 -61 -194.5t-193 -75.5q-115 0 -183.5 65t-68.5 183z"/>
<glyph glyph-name="ntilde" horiz-adv-x="569" unicode="ñ" d="M187 535l-84 35q8 37 41.5 75.5t83.5 38.5q27 0 71 -22q35 -19 58 -19q29 0 44 37l84 -34q-21 -53 -49.5 -84.5t-78.5 -31.5q-33 0 -73 19q-46 23 -58 23q-25 0 -39 -37zM514 270v-270h-146v240q0 26 -1 41.5t-5 33.5t-11.5 27t-22 15.5t-35.5 6.5q-44 0 -65.5 -31 t-21.5 -82v-251h-146v476h144v-59q18 31 56 51t87 20q83 0 125 -46q24 -27 33 -61.5t9 -110.5z"/>
<glyph glyph-name="ograve" horiz-adv-x="573" unicode="ò" d="M132 680h177l66 -145h-125zM182 238q0 -66 27 -102.5t77 -36.5t77.5 36.5t27.5 102.5q0 67 -27 103.5t-78 36.5t-77.5 -36.5t-26.5 -103.5zM34 236q0 119 68.5 185.5t183.5 66.5t184 -66.5t69 -185.5q0 -118 -69 -183t-184 -65t-183.5 65t-68.5 183z"/>
<glyph glyph-name="oacute" horiz-adv-x="573" unicode="ó" d="M266 680h177l-118 -145h-125zM182 238q0 -66 27 -102.5t77 -36.5t77.5 36.5t27.5 102.5q0 67 -27 103.5t-78 36.5t-77.5 -36.5t-26.5 -103.5zM34 236q0 119 68.5 185.5t183.5 66.5t184 -66.5t69 -185.5q0 -118 -69 -183t-184 -65t-183.5 65t-68.5 183z"/>
<glyph glyph-name="ocircumflex" horiz-adv-x="573" unicode="ô" d="M286 599l-51 -64h-115l111 145h105l118 -145h-118zM182 238q0 -66 27 -102.5t77 -36.5t77.5 36.5t27.5 102.5q0 67 -27 103.5t-78 36.5t-77.5 -36.5t-26.5 -103.5zM34 236q0 119 68.5 185.5t183.5 66.5t184 -66.5t69 -185.5q0 -118 -69 -183t-184 -65t-183.5 65 t-68.5 183z"/>
<glyph glyph-name="otilde" horiz-adv-x="573" unicode="õ" d="M182 535l-84 35q8 37 41.5 75.5t83.5 38.5q27 0 71 -22q35 -19 58 -19q29 0 44 37l84 -34q-21 -53 -49.5 -84.5t-78.5 -31.5q-33 0 -73 19q-46 23 -58 23q-25 0 -39 -37zM182 238q0 -66 27 -102.5t77 -36.5t77.5 36.5t27.5 102.5q0 67 -27 103.5t-78 36.5t-77.5 -36.5 t-26.5 -103.5zM34 236q0 119 68.5 185.5t183.5 66.5t184 -66.5t69 -185.5q0 -118 -69 -183t-184 -65t-183.5 65t-68.5 183z"/>
<glyph glyph-name="odieresis" horiz-adv-x="573" unicode="ö" d="M440 667v-116h-117v116h117zM255 667v-116h-117v116h117zM182 238q0 -66 27 -102.5t77 -36.5t77.5 36.5t27.5 102.5q0 67 -27 103.5t-78 36.5t-77.5 -36.5t-26.5 -103.5zM34 236q0 119 68.5 185.5t183.5 66.5t184 -66.5t69 -185.5q0 -118 -69 -183t-184 -65t-183.5 65 t-68.5 183z"/>
<glyph glyph-name="divide" horiz-adv-x="754" unicode="÷" d="M451 337h-150v138h150v-138zM451 0h-150v138h150v-138zM713 174h-672v130h672v-130z"/>
<glyph glyph-name="oslash" horiz-adv-x="573" unicode="ø" d="M182 238q0 -21 1 -31l129 168q-12 3 -26 3q-51 0 -77.5 -36.5t-26.5 -103.5zM391 238q0 17 -4 43l-135 -177q12 -5 34 -5q50 0 77.5 36.5t27.5 102.5zM534 472l-51 -66q56 -65 56 -170q0 -118 -69 -183t-184 -65q-57 0 -109 18l-40 -52l-93 73l38 49q-48 62 -48 160 q0 119 68.5 185.5t183.5 66.5q51 0 101 -16l57 74z"/>
<glyph glyph-name="ugrave" horiz-adv-x="565" unicode="ù" d="M126 679h177l66 -145h-125zM55 206v270h146v-240q0 -28 0.5 -42t4.5 -32.5t11.5 -27.5t21.5 -15.5t35 -6.5q42 0 63.5 31t21.5 82v251h146v-476h-144v59q-18 -31 -55.5 -51t-85.5 -20q-81 0 -123 46q-24 27 -33 61.5t-9 110.5z"/>
<glyph glyph-name="uacute" horiz-adv-x="565" unicode="ú" d="M255 680h177l-118 -145h-125zM55 206v270h146v-240q0 -28 0.5 -42t4.5 -32.5t11.5 -27.5t21.5 -15.5t35 -6.5q42 0 63.5 31t21.5 82v251h146v-476h-144v59q-18 -31 -55.5 -51t-85.5 -20q-81 0 -123 46q-24 27 -33 61.5t-9 110.5z"/>
<glyph glyph-name="ucircumflex" horiz-adv-x="565" unicode="û" d="M284 599l-51 -64h-115l111 145h105l118 -145h-118zM55 206v270h146v-240q0 -28 0.5 -42t4.5 -32.5t11.5 -27.5t21.5 -15.5t35 -6.5q42 0 63.5 31t21.5 82v251h146v-476h-144v59q-18 -31 -55.5 -51t-85.5 -20q-81 0 -123 46q-24 27 -33 61.5t-9 110.5z"/>
<glyph glyph-name="udieresis" horiz-adv-x="565" unicode="ü" d="M437 667v-116h-117v116h117zM252 667v-116h-117v116h117zM55 206v270h146v-240q0 -28 0.5 -42t4.5 -32.5t11.5 -27.5t21.5 -15.5t35 -6.5q42 0 63.5 31t21.5 82v251h146v-476h-144v59q-18 -31 -55.5 -51t-85.5 -20q-81 0 -123 46q-24 27 -33 61.5t-9 110.5z"/>
<glyph glyph-name="yacute" horiz-adv-x="503" unicode="ý" d="M342 476h150l-164 -515q-25 -78 -50 -104q-38 -41 -141 -41q-45 0 -89 4v113q20 -1 44 -1h5q17 0 26.5 1t21.5 4.5t18 12t6 22.5q0 9 -15 58l-145 446h153l68 -254l24 -102h1q11 59 22 102zM245 680h177l-118 -145h-125z"/>
<glyph glyph-name="thorn" horiz-adv-x="601" unicode="þ" d="M202 238q0 -62 30 -100.5t79 -38.5q51 0 79.5 37.5t28.5 101.5q0 66 -27.5 103t-80.5 37q-49 0 -79 -39t-30 -101zM345 -12q-92 0 -139 55v-251h-146v908h146v-268q20 22 57 39t82 17q101 0 161.5 -68.5t60.5 -181.5q0 -110 -61.5 -180t-160.5 -70z"/>
<glyph glyph-name="OE" horiz-adv-x="964" unicode="Œ" d="M432 123v432q-25 3 -49 3q-91 0 -143 -55t-52 -162q0 -106 54.5 -163t140.5 -57q37 0 49 2zM904 547h-323v-134h291v-132h-291v-147h346v-134h-436q-43 -10 -111 -10q-158 0 -250 90t-92 259q0 164 92 258.5t251 94.5q57 0 110 -12h413v-133z"/>
<glyph glyph-name="oe" horiz-adv-x="894" unicode="œ" d="M625 387q-42 0 -71 -27.5t-31 -65.5h199q-2 42 -28 67.5t-69 25.5zM182 238q0 -66 27 -102.5t77 -36.5t77.5 36.5t27.5 102.5q0 67 -27 103.5t-78 36.5t-77.5 -36.5t-26.5 -103.5zM756 169l101 -68q-79 -113 -228 -113q-100 0 -166 57q-66 -57 -177 -57q-115 0 -183.5 65 t-68.5 183q0 119 68.5 185.5t183.5 66.5q106 0 174 -59q67 59 166 59q114 0 175.5 -72t61.5 -186q0 -21 -1 -30h-339q4 -42 34 -69.5t81 -27.5q80 0 118 66z"/>
<glyph glyph-name="Scaron" horiz-adv-x="641" unicode="Š" d="M584 585l-96 -92q-77 74 -176 74q-48 0 -77.5 -18.5t-29.5 -50.5t22 -48.5t71 -25.5l110 -22q101 -20 153 -65t52 -130q0 -103 -80.5 -161t-205.5 -58q-106 0 -187 44t-120 98l105 90q80 -106 206 -106q59 0 92 21.5t33 59.5q0 33 -24.5 47.5t-77.5 23.5l-88 17 q-105 20 -161.5 65t-56.5 137q0 91 74.5 149t187.5 58q87 0 157.5 -29t116.5 -78zM271 909l51 -64l50 64h118l-118 -145h-105l-111 145h115z"/>
<glyph glyph-name="scaron" horiz-adv-x="499" unicode="š" d="M453 409l-82 -78q-57 52 -129 52q-27 0 -44.5 -9t-17.5 -26q0 -18 15.5 -26t55.5 -16l75 -16q68 -14 107.5 -45t39.5 -93q0 -79 -60 -121.5t-150 -42.5q-79 0 -144.5 30.5t-99.5 76.5l92 74q23 -32 64 -52.5t88 -20.5q74 0 74 42q0 13 -10 21t-20 10.5t-31 6.5l-75 15 q-77 14 -118 50q-41 35 -41 93q0 78 61 116t142 38q126 0 208 -79zM203 680l51 -64l50 64h118l-118 -145h-105l-111 145h115z"/>
<glyph glyph-name="Ydieresis" horiz-adv-x="642" unicode="Ÿ" d="M475 894v-116h-117v116h117zM290 894v-116h-117v116h117zM394 271v-271h-151v272l-242 408h174l150 -261l154 261h173z"/>
<glyph glyph-name="circumflex" horiz-adv-x="500" unicode="ˆ" d="M249 599l-51 -64h-115l111 145h105l118 -145h-118z"/>
<glyph glyph-name="tilde" horiz-adv-x="500" unicode="˜" d="M143 531l-84 35q8 37 41.5 75.5t83.5 38.5q27 0 71 -22q35 -19 58 -19q29 0 44 37l84 -34q-21 -53 -49.5 -84.5t-78.5 -31.5q-33 0 -73 19q-46 23 -58 23q-25 0 -39 -37z"/>
<glyph glyph-name="uni0394" horiz-adv-x="644" unicode="Δ" d="M322 457l-127 -326h255zM-1 0l266 680h114l266 -680h-646z"/>
<glyph glyph-name="uni03BC" horiz-adv-x="570" unicode="μ" d="M60 -180v656h146v-240q0 -28 0.5 -42t4.5 -32.5t11.5 -27.5t21.5 -15.5t35 -6.5q42 0 63.5 31t21.5 82v251h146v-476h-144v59q-31 -63 -110 -63q-23 0 -50 8v-184h-146z"/>
<glyph glyph-name="pi" horiz-adv-x="703" unicode="π" d="M258 361v-361h-146v361h-92v115h643v-115h-104v-189q0 -37 12 -49q14 -15 50 -15q19 0 42 5v-113q-38 -10 -88 -10q-111 0 -142 41q-20 27 -20 98v232h-155z"/>
<glyph glyph-name="enspace" horiz-adv-x="500" unicode=" "/>
<glyph glyph-name="emspace" horiz-adv-x="1000" unicode=" "/>
<glyph glyph-name="thinspace" horiz-adv-x="133" unicode=" "/>
<glyph glyph-name="endash" horiz-adv-x="622" unicode="–" d="M566 227h-509v134h509v-134z"/>
<glyph glyph-name="emdash" horiz-adv-x="812" unicode="—" d="M756 227h-699v134h699v-134z"/>
<glyph glyph-name="quoteleft" horiz-adv-x="262" unicode="‘" d="M208 371h-159v99q0 80 11 119q15 51 49 75.5t99 25.5v-77q-36 -2 -54 -19.5t-18 -54.5h72v-168z"/>
<glyph glyph-name="quotesinglbase" horiz-adv-x="267" unicode="‚" d="M54 177h159v-108q0 -81 -11 -119q-15 -51 -49 -75.5t-99 -25.5v77q36 2 54 19.5t18 54.5h-72v177z"/>
<glyph glyph-name="quotedblleft" horiz-adv-x="480" unicode="“" d="M426 371h-159v99q0 80 11 119q15 51 49 75.5t99 25.5v-77q-36 -2 -54 -19.5t-18 -54.5h72v-168zM208 371h-159v99q0 80 11 119q15 51 49 75.5t99 25.5v-77q-36 -2 -54 -19.5t-18 -54.5h72v-168z"/>
<glyph glyph-name="quotedblright" horiz-adv-x="474" unicode="”" d="M54 681h159v-99q0 -80 -11 -119q-15 -51 -49 -75.5t-99 -25.5v77q36 2 54 19.5t18 54.5h-72v168zM272 681h159v-99q0 -80 -11 -119q-15 -51 -49 -75.5t-99 -25.5v77q36 2 54 19.5t18 54.5h-72v168z"/>
<glyph glyph-name="dagger" horiz-adv-x="543" unicode="†" d="M514 386h-171v-386h-146v386h-168v139h168v155h146v-155h171v-139z"/>
<glyph glyph-name="daggerdbl" horiz-adv-x="577" unicode="‡" d="M360 386v-92h171v-139h-171v-155h-146v155h-168v139h168v92h-168v139h168v155h146v-155h171v-139h-171z"/>
<glyph glyph-name="ellipsis" horiz-adv-x="950" unicode="…" d="M896 0h-159v178h159v-178zM562 0h-159v178h159v-178zM213 0h-159v178h159v-178z"/>
<glyph glyph-name="perthousand" horiz-adv-x="1399" unicode="‰" d="M1258 196q0 56 -15.5 88.5t-44.5 32.5q-28 0 -42.5 -32t-14.5 -82q0 -115 57 -115q60 0 60 108zM1370 197q0 -87 -44 -148t-129 -61q-87 0 -129.5 61t-42.5 148q0 58 14.5 105t55.5 81.5t104 34.5q40 0 71 -14t49.5 -35.5t30.5 -52t16 -59t4 -60.5zM842 196 q0 56 -15.5 88.5t-44.5 32.5q-28 0 -42.5 -32t-14.5 -82q0 -115 57 -115q60 0 60 108zM954 197q0 -87 -44 -148t-129 -61q-87 0 -129.5 61t-42.5 148q0 58 14.5 105t55.5 81.5t104 34.5q40 0 71 -14t49.5 -35.5t30.5 -52t16 -59t4 -60.5zM731 680l-352 -680h-129l354 680 h127zM262 470q0 56 -15.5 88.5t-44.5 32.5q-28 0 -42.5 -32t-14.5 -82q0 -115 57 -115q60 0 60 108zM374 471q0 -87 -44 -148t-129 -61q-87 0 -129.5 61t-42.5 148q0 58 14.5 105t55.5 81.5t104 34.5q40 0 71 -14t49.5 -35.5t30.5 -52t16 -59t4 -60.5z"/>
<glyph glyph-name="guilsinglleft" horiz-adv-x="279" unicode="‹" d="M222 59l-181 149v142l181 151v-161l-76 -59l76 -63v-159z"/>
<glyph glyph-name="guilsinglright" horiz-adv-x="279" unicode="›" d="M238 208l-181 -149v159l76 63l-76 59v161l181 -151v-142z"/>
<glyph glyph-name="fraction" horiz-adv-x="630" unicode="⁄" d="M482 680h162l-495 -680h-163z"/>
<glyph glyph-name="Euro" horiz-adv-x="635" unicode="€" d="M459 215l140 -31q-17 -89 -77.5 -142.5t-160.5 -53.5t-159 57.5t-80 154.5h-92l37 108h40v52h-77l37 107h51q21 99 80.5 163t164.5 64q182 0 233 -192l-136 -47q-21 107 -96 107q-74 0 -94 -95h167l-35 -107h-144v-52h129l-36 -108h-79q16 -80 92 -80q74 0 95 95z"/>
<glyph glyph-name="trademark" horiz-adv-x="937" unicode="™" d="M860 225h-111v214q-7 -34 -15 -65l-39 -149h-87l-40 146l-16 67v-213h-112v455h134l47 -155l31 -116q7 42 28 118l42 153h138v-455zM50 571v109h355v-109h-119v-346h-117v346h-119z"/>
<glyph glyph-name="arrowleft" horiz-adv-x="806" unicode="←" d="M742 299v-121h-485l186 -178h-186l-237 238l237 237h186l-185 -176h484z"/>
<glyph glyph-name="arrowup" horiz-adv-x="576" unicode="↑" d="M50 330v155l238 237l238 -237v-155l-165 165v-495h-146v495z"/>
<glyph glyph-name="arrowright" horiz-adv-x="806" unicode="→" d="M363 475h186l237 -237l-237 -238h-186l186 178h-485v121h484z"/>
<glyph glyph-name="arrowdown" horiz-adv-x="576" unicode="↓" d="M50 227v155l165 -165v495h146v-495l165 165v-155l-238 -237z"/>
<glyph glyph-name="carriagereturn" horiz-adv-x="806" unicode="↵" d="M742 475v-297h-485l186 -178h-186l-237 238l237 237h186l-185 -176h338v176h146z"/>
<glyph glyph-name="partialdiff" horiz-adv-x="553" unicode="∂" d="M182 539l-47 118q58 34 123 34q123 0 186.5 -93t63.5 -270q0 -172 -65 -255t-181 -83q-117 0 -174 71t-57 173q0 111 64.5 172t159.5 61q61 0 103 -24q-20 115 -106 115q-36 0 -70 -19zM262 121q48 0 75 42.5t29 119.5q-13 22 -41 37t-62 15q-39 0 -65.5 -27t-26.5 -78 t25.5 -80t65.5 -29z"/>
<glyph glyph-name="product" horiz-adv-x="929" unicode="∏" d="M302 545v-725h-151v725h-124v135h875v-135h-124v-725h-151v725h-325z"/>
<glyph glyph-name="summation" horiz-adv-x="671" unicode="∑" d="M35 -67l221 313l-221 318v117h598v-136h-412l203 -296l-205 -292h414v-137h-598v113z"/>
<glyph glyph-name="minus" horiz-adv-x="799" unicode="−" d="M736 228h-672v138h672v-138z"/>
<glyph glyph-name="radical" horiz-adv-x="549" unicode="√" d="M411 681h131l-183 -684h-120l-125 374h-92v123h201l50 -159l26 -97q11 52 23 99z"/>
<glyph glyph-name="infinity" horiz-adv-x="894" unicode="∞" d="M229 263q40 0 117 58q-84 61 -119 61q-24 0 -38.5 -17t-14.5 -42q0 -27 15 -43.5t40 -16.5zM719 322q0 28 -15 44t-41 16q-37 0 -118 -58q90 -61 122 -61q25 0 38.5 17t13.5 42zM848 326q0 -78 -48.5 -133.5t-135.5 -55.5q-95 0 -222 108q-44 -35 -68.5 -53t-67.5 -37.5 t-82 -19.5q-89 0 -133 54t-44 131q0 85 47.5 136.5t133.5 51.5q54 0 103 -26t117 -81q124 107 220 107q86 0 133 -52.5t47 -129.5z"/>
<glyph glyph-name="logicaland" horiz-adv-x="270" unicode="∧" d="M213 199h-159v178h159v-178z"/>
<glyph glyph-name="approxequal" horiz-adv-x="607" unicode="≈" d="M499 231l62 -101q-72 -86 -161 -86q-55 0 -109 30q-56 30 -83 30q-53 0 -97 -57l-63 97q22 34 66 64t96 30q47 0 109 -35q46 -26 77 -26q58 0 103 54zM499 456l62 -101q-72 -86 -161 -86q-55 0 -109 30q-56 30 -83 30q-53 0 -97 -57l-63 97q22 34 66 64t96 30 q47 0 109 -35q46 -26 77 -26q58 0 103 54z"/>
<glyph glyph-name="notequal" horiz-adv-x="778" unicode="≠" d="M725 128h-359l-67 -128h-154l68 128h-162v126h229l41 78h-270v126h337l68 128h152l-68 -128h185v-126h-251l-41 -78h292v-126z"/>
<glyph glyph-name="lessequal" horiz-adv-x="783" unicode="≤" d="M726 294v-143l-679 217v112l679 212v-143l-486 -123zM725 0h-678v126h678v-126z"/>
<glyph glyph-name="greaterequal" horiz-adv-x="783" unicode="≥" d="M57 151v143l486 132l-486 123v143l679 -212v-112zM736 0h-678v126h678v-126z"/>
<glyph glyph-name="dotmath" horiz-adv-x="270" unicode="⋅" d="M213 199h-159v178h159v-178z"/>
<glyph glyph-name="lozenge" horiz-adv-x="562" unicode="◊" d="M281 179l95 158l-95 159l-96 -159zM234 680h94l208 -343l-208 -340h-94l-208 340z"/>
</font>
</defs>
</svg>
