<?xml version="1.0" encoding="UTF-8" standalone="no"?>
<!DOCTYPE svg  PUBLIC '-//W3C//DTD SVG 1.1//EN'  'http://www.w3.org/Graphics/SVG/1.1/DTD/svg11.dtd'>
<svg xmlns="http://www.w3.org/2000/svg">
<defs>
<font id="GroteskRegular-Regular" horiz-adv-x="590">
<font-face underline-position="-76" font-weight="400" descent="-200" panose-1="2 11 5 3 2 2 2 2 2 4" units-per-em="1000" unicode-range="U+0020-25CA" bbox="-57 -211 1247 904" x-height="476" underline-thickness="45" font-family="GroteskRegular" ascent="800" cap-height="680"/>
<missing-glyph horiz-adv-x="1000"/>
<glyph glyph-name=".notdef" horiz-adv-x="1000"/>
<glyph glyph-name=".null" horiz-adv-x="0"/>
<glyph glyph-name="nonmarkingreturn" horiz-adv-x="333"/>
<glyph glyph-name="space" horiz-adv-x="200" unicode=" "/>
<glyph glyph-name="exclam" horiz-adv-x="227" unicode="!" d="M69 125h89v-125h-89v125zM155 341l-12 -168h-58l-13 168v339h83v-339z"/>
<glyph glyph-name="quotedbl" horiz-adv-x="329" unicode='&quot;' d="M138 607l-21 -207h-46l-19 207v73h86v-73zM277 607l-21 -207h-46l-19 207v73h86v-73z"/>
<glyph glyph-name="numbersign" horiz-adv-x="653" unicode="#" d="M284 401l-25 -149h100l25 149h-100zM616 477v-76h-156l-25 -149h161v-75h-173l-28 -177h-76l28 177h-100l-28 -177h-76l28 177h-135v75h147l25 149h-151l-1 76h163l33 202h76l-33 -202h100l33 202h76l-33 -202h145z"/>
<glyph glyph-name="dollar" horiz-adv-x="579" unicode="$" d="M143 503q0 -42 25.5 -63.5t86.5 -37.5v202q-51 -5 -81.5 -31.5t-30.5 -69.5zM456 189q0 43 -30.5 67.5t-93.5 41.5v-221q56 6 90 35t34 77zM526 571l-64 -53q-49 68 -130 83v-218l19 -4q95 -24 144.5 -64t49.5 -121q0 -82 -59 -133.5t-154 -60.5v-92h-77v92 q-78 8 -136 43.5t-91 89.5l71 50q46 -86 156 -105v239l-17 5q-43 11 -70.5 21.5t-56 30t-42 49.5t-13.5 72q0 79 56.5 128t142.5 57v98h77v-100q125 -17 194 -107z"/>
<glyph glyph-name="percent" horiz-adv-x="892" unicode="%" d="M788 199q0 76 -21 120.5t-64 44.5q-41 0 -62 -44t-21 -113q0 -67 20 -111t63 -44q85 0 85 147zM861 200q0 -88 -40.5 -149t-118.5 -61q-80 0 -118.5 61t-38.5 149q0 43 8 81t25.5 71.5t49.5 53t76 19.5q45 0 77.5 -20.5t49 -55t23.5 -71t7 -78.5zM658 680l-353 -680h-75 l354 680h74zM274 462q0 76 -21 120.5t-64 44.5q-41 0 -62 -44t-21 -113q0 -67 20 -111t63 -44q85 0 85 147zM347 463q0 -88 -40.5 -149t-118.5 -61q-80 0 -118.5 61t-38.5 149q0 43 8 81t25.5 71.5t49.5 53t76 19.5q45 0 77.5 -20.5t49 -55t23.5 -71t7 -78.5z"/>
<glyph glyph-name="ampersand" horiz-adv-x="629" unicode="&amp;" d="M263 449l19 -24q91 51 91 118q0 36 -22 57t-55 21q-35 0 -56.5 -20.5t-21.5 -55.5q0 -40 45 -96zM410 144l-157 188q-57 -31 -88.5 -64t-31.5 -84q0 -57 38.5 -89.5t93.5 -32.5q94 0 145 82zM530 0l-73 85q-75 -97 -201 -97q-90 0 -149 52t-59 141q0 74 41 120t119 86 l-11 15q-23 30 -32 42.5t-20.5 42t-11.5 59.5q0 58 44.5 102t118.5 44q77 0 118.5 -40t41.5 -100q0 -110 -128 -183l122 -147q20 64 29 118l76 -19q-14 -90 -52 -166l136 -155h-109z"/>
<glyph glyph-name="quotesingle" horiz-adv-x="190" unicode="&apos;" d="M138 607l-21 -207h-46l-19 207v73h86v-73z"/>
<glyph glyph-name="parenleft" horiz-adv-x="256" unicode="(" d="M238 -151l-69 -13q-127 199 -127 421q0 237 128 431l69 -10q-118 -195 -118 -418q0 -103 32 -213t85 -198z"/>
<glyph glyph-name="parenright" horiz-adv-x="256" unicode=")" d="M87 -164l-69 13q53 88 85 198t32 213q0 223 -118 418l69 10q128 -194 128 -431q0 -222 -127 -421z"/>
<glyph glyph-name="asterisk" horiz-adv-x="425" unicode="*" d="M248 680l-1 -129l122 41l22 -68l-123 -39l77 -103l-58 -42l-75 104l-74 -104l-58 42l76 103l-122 39l22 68l121 -41v129h71z"/>
<glyph glyph-name="plus" horiz-adv-x="646" unicode="+" d="M362 259v-259h-77v259h-255v76h255v258h77v-258h254v-76h-254z"/>
<glyph glyph-name="comma" horiz-adv-x="211" unicode="," d="M58 115h95v-75q0 -83 -9 -115q-18 -65 -86 -70v46q23 3 33 20q11 19 11 65v14h-44v115z"/>
<glyph glyph-name="hyphen" horiz-adv-x="384" unicode="-" d="M63 315h258v-87h-258v87z"/>
<glyph glyph-name="period" horiz-adv-x="211" unicode="." d="M58 115h95v-115h-95v115z"/>
<glyph glyph-name="slash" horiz-adv-x="484" unicode="/" d="M381 680h81l-358 -680h-82z"/>
<glyph glyph-name="zero" d="M295 -12q-70 0 -122 29t-81 80t-42.5 111t-13.5 131q0 154 65.5 253.5t193.5 99.5t193.5 -99t65.5 -254q0 -56 -8 -105.5t-27.5 -95t-48.5 -78.5t-74 -52.5t-101 -19.5zM295 619q-84 0 -126 -76.5t-42 -201.5q0 -279 168 -279t168 279q0 125 -42 201.5t-126 76.5z" unicode="0"/>
<glyph glyph-name="one" d="M397 680v-680h-85v468h-179v67h22q76 0 116 29q49 36 52 116h74z" unicode="1"/>
<glyph glyph-name="two" d="M178 385l-95 8q-15 33 -15 90q0 88 61 148.5t164 60.5q111 0 166.5 -62t55.5 -159q0 -181 -237 -344q-42 -28 -82 -52h324v-75h-447v71q99 62 231 176q58 51 90.5 102.5t32.5 117.5q0 70 -38.5 110t-100.5 40q-64 0 -98 -37.5t-34 -95.5q0 -52 22 -99z" unicode="2"/>
<glyph glyph-name="three" d="M146 490l-76 24q4 62 61 120t161 58t159.5 -49t55.5 -128q0 -57 -27.5 -95.5t-72.5 -57.5q51 -19 85 -61.5t34 -107.5q0 -91 -65 -148t-177 -57q-104 0 -164.5 54.5t-65.5 148.5l81 26q4 -78 45.5 -116.5t104.5 -38.5q70 0 110.5 36t40.5 98q0 82 -72 110q-41 16 -110 16 h-62v70h56q71 0 113 19q57 25 57 97q0 51 -34 81t-96 30q-64 0 -99.5 -36.5t-42.5 -92.5z" unicode="3"/>
<glyph glyph-name="four" d="M133 244h214v217q0 45 4 99q-42 -71 -63 -100zM432 168v-168h-85v168h-309v64l316 448h78v-436h114v-76h-114z" unicode="4"/>
<glyph glyph-name="five" d="M58 154l84 31q14 -59 53.5 -91t95.5 -32q64 0 108 44.5t44 128.5q0 74 -42.5 114.5t-102.5 40.5q-55 0 -93.5 -30t-54.5 -87l-74 24l35 383h384l-5 -78h-304l-20 -189q60 52 144 52q99 0 160.5 -62t61.5 -170t-65.5 -176.5t-177.5 -68.5q-89 0 -149.5 43.5t-81.5 122.5z " unicode="5"/>
<glyph glyph-name="six" d="M449 228q0 71 -40 110.5t-103 39.5q-46 0 -89.5 -24t-67.5 -64q2 -104 43.5 -166t113.5 -62q64 0 103.5 45.5t39.5 120.5zM520 519l-79 -20q-29 120 -131 120q-75 0 -115.5 -62t-45.5 -177q26 32 70 52.5t100 20.5q98 0 157.5 -62.5t59.5 -157.5q0 -102 -61 -173.5 t-169 -71.5q-119 0 -183 85.5t-64 261.5q0 169 66 263t188 94q51 0 91 -16.5t63 -43.5t36 -55.5t17 -57.5z" unicode="6"/>
<glyph glyph-name="seven" d="M540 680v-65q-99 -150 -156.5 -297.5t-71.5 -317.5h-94q30 304 226 603h-293v-131h-81v208h470z" unicode="7"/>
<glyph glyph-name="eight" d="M294 396q64 0 100.5 32t36.5 80q0 49 -38 80t-99 31t-99 -30.5t-38 -80.5q0 -48 36.5 -80t100.5 -32zM294 62q73 0 112.5 38t39.5 93q0 59 -41 95.5t-111 36.5t-110.5 -36.5t-40.5 -95.5q0 -55 39.5 -93t111.5 -38zM294 692q105 0 163.5 -51t58.5 -130q0 -50 -28 -90 t-69 -59q117 -56 117 -170q0 -87 -61.5 -145.5t-180.5 -58.5q-120 0 -180.5 58.5t-60.5 145.5q0 118 117 171q-43 18 -70.5 56.5t-27.5 91.5q0 79 58.5 130t163.5 51z" unicode="8"/>
<glyph glyph-name="nine" d="M141 453q0 -71 40 -110.5t103 -39.5q46 0 89.5 24t67.5 64q-2 104 -43.5 166t-113.5 62q-64 0 -103.5 -45.5t-39.5 -120.5zM70 161l79 21q29 -120 131 -120q75 0 115.5 61.5t45.5 176.5q-26 -32 -70 -52.5t-100 -20.5q-98 0 -157.5 62.5t-59.5 157.5q0 102 61 173.5 t169 71.5q119 0 183 -85.5t64 -261.5q0 -169 -66 -263t-188 -94q-51 0 -91 16.5t-63 43.5t-36 55.5t-17 57.5z" unicode="9"/>
<glyph glyph-name="colon" horiz-adv-x="227" unicode=":" d="M66 476h95v-115h-95v115zM66 115h95v-115h-95v115z"/>
<glyph glyph-name="semicolon" horiz-adv-x="227" unicode=";" d="M66 115h95v-75q0 -83 -9 -115q-18 -65 -86 -70v46q23 3 33 20q11 19 11 65v14h-44v115zM66 476h95v-115h-95v115z"/>
<glyph glyph-name="less" horiz-adv-x="752" unicode="&lt;" d="M706 67v-90l-678 319v80l678 317v-87l-572 -269z"/>
<glyph glyph-name="equal" horiz-adv-x="821" unicode="=" d="M747 339h-672v76h672v-76zM747 165h-672v76h672v-76z"/>
<glyph glyph-name="greater" horiz-adv-x="752" unicode="&gt;" d="M46 -23v90l572 270l-572 269v87l678 -317v-80z"/>
<glyph glyph-name="question" horiz-adv-x="474" unicode="?" d="M175 111h90v-111h-90v111zM137 405l-91 13q-16 29 -16 83q0 80 58 133.5t151 53.5q98 0 151.5 -50t53.5 -128q0 -63 -26 -107.5t-75 -90.5l-26 -24q-29 -26 -40.5 -47t-11.5 -59v-31h-89v38q0 47 14.5 76.5t58.5 69.5l37 33q69 61 69 131q0 50 -31.5 82.5t-87.5 32.5 q-55 0 -87.5 -33.5t-32.5 -83.5q0 -22 5 -45t11 -35z"/>
<glyph glyph-name="at" horiz-adv-x="813" unicode="@" d="M507 158v78q-27 -8 -49 -12l-40 -9q-64 -14 -82 -27q-22 -16 -22 -46q0 -34 24.5 -53.5t64.5 -19.5q44 0 74 22t30 67zM577 106q0 -38 34 -38q39 0 63.5 58.5t24.5 146.5q0 115 -73.5 196.5t-201.5 81.5q-133 0 -220.5 -91t-87.5 -238t87 -238.5t229 -91.5q171 0 281 137 l40 -51q-121 -148 -323 -148q-183 0 -285.5 107.5t-102.5 284.5q0 171 109.5 280.5t272.5 109.5q158 0 251.5 -96.5t93.5 -239.5q0 -142 -61 -211q-45 -51 -114 -51q-78 0 -83 56h-1q-34 -58 -128 -58q-66 0 -105 33.5t-39 93.5q0 63 54 96q34 20 122 36l57 9q22 4 29 8.5 t7 17.5v12q0 37 -18.5 55.5t-70.5 18.5q-99 0 -99 -89l-70 8q-1 67 48 103.5t124 36.5q77 0 116.5 -29t39.5 -103v-213z"/>
<glyph glyph-name="A" horiz-adv-x="594" unicode="A" d="M398 272l-77 224q-20 53 -26 80h-1q-13 -43 -26 -81l-76 -223h206zM166 196l-68 -196h-92l243 680h98l239 -680h-95l-68 196h-257z"/>
<glyph glyph-name="B" horiz-adv-x="648" unicode="B" d="M352 0h-273v680h266q99 0 149 -25q89 -45 89 -152q0 -53 -28 -90.5t-75 -52.5q58 -18 92 -61.5t34 -105.5q0 -114 -93 -163q-55 -30 -161 -30zM496 495q0 67 -55 92q-32 13 -102 13h-172v-210h172q64 0 101 14q56 26 56 91zM167 314v-235h181q78 0 105 12q30 14 48 42.5 t18 64.5q0 62 -50 95q-35 21 -121 21h-181z"/>
<glyph glyph-name="C" horiz-adv-x="648" unicode="C" d="M541 195l80 -40q-37 -79 -106.5 -123t-161.5 -44q-138 0 -224 94.5t-86 257.5q0 157 84 254.5t226 97.5q88 0 155.5 -41t106.5 -114l-75 -51q-54 129 -187 129q-101 0 -159.5 -74.5t-58.5 -200.5q0 -125 58.5 -200t159.5 -75q65 0 113 34t75 96z"/>
<glyph glyph-name="D" horiz-adv-x="663" unicode="D" d="M167 601v-523h94q52 0 77 1.5t56.5 11t55.5 29.5q36 29 58 87.5t22 131.5q0 66 -22 125.5t-61 93.5q-33 28 -74.5 35.5t-124.5 7.5h-81zM241 0h-162v680h166q98 0 150 -8t97 -41q57 -42 91.5 -118t34.5 -170q0 -172 -100 -272q-50 -49 -105 -60t-172 -11z"/>
<glyph glyph-name="E" horiz-adv-x="588" unicode="E" d="M553 79v-79h-474v680h455v-79h-367v-212h333v-79h-333v-231h386z"/>
<glyph glyph-name="F" horiz-adv-x="552" unicode="F" d="M167 0h-88v680h449v-78h-361v-212h326v-78h-326v-312z"/>
<glyph glyph-name="G" horiz-adv-x="688" unicode="G" d="M353 64q52 0 96.5 18.5t66.5 50.5q36 52 37 146h-234v79h316v-358h-83v87q-27 -42 -78.5 -70.5t-122.5 -28.5q-137 0 -222 94t-85 258q0 157 84 254.5t225 97.5q90 0 157.5 -41t104.5 -114l-74 -50q-55 128 -188 128q-100 0 -159 -74.5t-59 -200.5q0 -125 59 -200.5 t159 -75.5z"/>
<glyph glyph-name="H" horiz-adv-x="692" unicode="H" d="M613 680v-680h-88v313h-358v-313h-88v680h88v-288h358v288h88z"/>
<glyph glyph-name="I" horiz-adv-x="246" unicode="I" d="M167 680v-680h-88v680h88z"/>
<glyph glyph-name="J" horiz-adv-x="360" unicode="J" d="M197 680h88v-517q0 -69 -24 -107q-42 -68 -163 -68q-47 0 -83 9v80q38 -12 74 -12q52 0 80 23q19 16 23.5 42t4.5 85v465z"/>
<glyph glyph-name="K" horiz-adv-x="643" unicode="K" d="M358 409l286 -409h-111l-240 348l-126 -130v-218h-88v680h88v-353l342 353h118z"/>
<glyph glyph-name="L" horiz-adv-x="515" unicode="L" d="M504 79v-79h-425v680h89v-601h336z"/>
<glyph glyph-name="M" horiz-adv-x="780" unicode="M" d="M434 0h-83l-154 465l-33 113h-1q1 -82 1 -142v-436h-85v680h126l155 -462q9 -26 20.5 -63t13.5 -41q13 51 30 105l149 461h128v-680h-85v444v144h-1q-19 -76 -32 -115z"/>
<glyph glyph-name="N" horiz-adv-x="703" unicode="N" d="M166 680l320 -457q38 -54 51 -77h1q-2 50 -2 110v424h88v-680h-87l-318 458q-41 59 -53 82h-1q2 -44 2 -84v-456h-88v680h87z"/>
<glyph glyph-name="O" horiz-adv-x="704" unicode="O" d="M135 340q0 -125 58 -199.5t159 -74.5q100 0 158 74.5t58 199.5t-57.5 199.5t-158.5 74.5t-159 -74t-58 -200zM43 340q0 157 84 254.5t225 97.5q140 0 224 -97.5t84 -254.5t-83 -254.5t-225 -97.5q-141 0 -225 97.5t-84 254.5z"/>
<glyph glyph-name="P" horiz-adv-x="606" unicode="P" d="M168 602v-234h163q60 0 96 12q67 25 67 105t-67 105q-36 12 -96 12h-163zM168 290v-290h-89v680h253q89 0 138 -20q114 -50 114 -175q0 -110 -88 -162q-34 -20 -73 -26.5t-102 -6.5h-153z"/>
<glyph glyph-name="Q" horiz-adv-x="708" unicode="Q" d="M135 340q0 -125 58 -199.5t159 -74.5q100 0 158 74.5t58 199.5t-57.5 199.5t-158.5 74.5t-159 -74t-58 -200zM43 340q0 157 84 254.5t225 97.5q140 0 224 -97.5t84 -254.5q0 -141 -66 -233l71 -73l-64 -62l-68 72q-76 -56 -181 -56q-141 0 -225 97.5t-84 254.5z"/>
<glyph glyph-name="R" horiz-adv-x="633" unicode="R" d="M167 369h153q77 0 117 17q58 27 58 100t-60 100q-40 16 -116 16h-152v-233zM167 291v-291h-88v680h256q87 0 140 -20q53 -21 82 -66t29 -109q0 -79 -47.5 -128t-124.5 -62l192 -295h-110l-186 291h-143z"/>
<glyph glyph-name="S" horiz-adv-x="585" unicode="S" d="M532 578l-65 -55q-64 91 -183 91q-63 0 -103 -28t-40 -78q0 -44 27 -66.5t93 -38.5l92 -23q97 -25 147.5 -66t50.5 -124q0 -94 -72 -148t-184 -54q-92 0 -162.5 38t-108.5 101l72 51q26 -48 79 -79.5t125 -31.5q71 0 115.5 30.5t44.5 87.5q0 47 -33.5 72t-105.5 43 l-83 21q-44 12 -72 22.5t-57 30.5t-43 51.5t-14 74.5q0 89 67.5 140.5t165.5 51.5q162 0 247 -114z"/>
<glyph glyph-name="T" horiz-adv-x="538" unicode="T" d="M16 601v79h506v-79h-209v-601h-88v601h-209z"/>
<glyph glyph-name="U" horiz-adv-x="660" unicode="U" d="M330 -13q-158 0 -222 107q-19 33 -27 72.5t-8 113.5v400h88v-399q0 -109 25 -150q39 -66 144 -66t144 66q25 41 25 150v399h88v-400q0 -74 -8 -113.5t-27 -72.5q-64 -107 -222 -107z"/>
<glyph glyph-name="V" horiz-adv-x="585" unicode="V" d="M102 680l166 -485q9 -23 25 -73h1q9 32 25 73l171 485h90l-245 -680h-88l-238 680h93z"/>
<glyph glyph-name="W" horiz-adv-x="862" unicode="W" d="M652 306l103 374h90l-195 -680h-71l-120 411q-10 35 -27 103q-4 -16 -8 -31.5t-10 -36.5t-10 -37l-118 -409h-70l-203 680h95l107 -376q7 -26 16 -58t15.5 -57t7.5 -30q32 122 39 147l104 374h68l110 -376q31 -105 39 -142q25 97 38 144z"/>
<glyph glyph-name="X" horiz-adv-x="615" unicode="X" d="M363 366l255 -366h-107l-203 295l-210 -295h-103l260 361l-228 319h111l172 -249l172 249h109z"/>
<glyph glyph-name="Y" horiz-adv-x="591" unicode="Y" d="M338 278v-278h-88v278l-246 402h101l194 -318l199 318h99z"/>
<glyph glyph-name="Z" horiz-adv-x="566" unicode="Z" d="M536 79v-79h-510v65l394 536h-377v79h483v-69l-389 -532h399z"/>
<glyph glyph-name="bracketleft" horiz-adv-x="289" unicode="[" d="M260 -94v-65h-189v839h189v-65h-109v-709h109z"/>
<glyph glyph-name="backslash" horiz-adv-x="484" unicode="\" d="M22 680h81l359 -680h-82z"/>
<glyph glyph-name="bracketright" horiz-adv-x="289" unicode="]" d="M29 -158v65h109v708h-109v65h189v-838h-189z"/>
<glyph glyph-name="asciicircum" horiz-adv-x="451" unicode="^" d="M264 680l173 -357h-94l-119 258l-119 -258h-96l179 357h76z"/>
<glyph glyph-name="underscore" horiz-adv-x="730" unicode="_" d="M628 -82v-76h-526v76h526z"/>
<glyph glyph-name="grave" horiz-adv-x="427" unicode="`" d="M103 680h106l69 -128h-73z"/>
<glyph glyph-name="a" horiz-adv-x="498" unicode="a" d="M344 155v87q-13 -6 -55 -14l-46 -10q-72 -16 -93 -31q-25 -17 -25 -52q0 -40 28 -61.5t73 -21.5q50 0 84 25.5t34 77.5zM476 51v-58q-20 -4 -47 -4q-75 0 -80 64h-1q-40 -66 -147 -66q-74 0 -118 38t-44 106q0 75 61 111q39 23 139 41l65 11q24 4 32 9.5t8 19.5v10 q0 42 -21 64t-80 22q-112 0 -112 -101l-80 9q-1 77 55 118t141 41q87 0 132 -33t45 -117v-242q0 -24 9.5 -33.5t31.5 -9.5h11z"/>
<glyph glyph-name="b" horiz-adv-x="551" unicode="b" d="M141 239q0 -87 41.5 -134t106.5 -47t101.5 48t36.5 133q0 86 -38 133t-102 47t-105 -46.5t-41 -133.5zM305 -12q-60 0 -100 25.5t-56 56.5v-70h-83v680h83v-274q16 31 55.5 56t97.5 25q92 0 151 -66.5t59 -183.5q0 -115 -57.5 -182t-149.5 -67z"/>
<glyph glyph-name="c" horiz-adv-x="496" unicode="c" d="M403 143l65 -33q-60 -122 -203 -122q-105 0 -165.5 67t-60.5 181t62.5 182.5t163.5 68.5q148 0 199 -129l-69 -36q-34 96 -130 96q-64 0 -102.5 -48t-38.5 -133q0 -84 39.5 -132t101.5 -48q99 0 138 86z"/>
<glyph glyph-name="d" horiz-adv-x="551" unicode="d" d="M410 239q0 87 -41 133.5t-105 46.5t-102 -47t-38 -133q0 -85 36.5 -133t101.5 -48t106.5 47t41.5 134zM246 -12q-92 0 -149.5 67t-57.5 182q0 117 59 183.5t151 66.5q58 0 97.5 -25t55.5 -56v274h83v-680h-83v70q-16 -31 -56 -56.5t-100 -25.5z"/>
<glyph glyph-name="e" horiz-adv-x="516" unicode="e" d="M265 420q-55 0 -93.5 -36.5t-45.5 -98.5h267q-5 64 -38.5 99.5t-89.5 35.5zM416 141l60 -43q-10 -15 -23.5 -29.5t-38.5 -35t-64 -33t-84 -12.5q-103 0 -165 67t-62 185q0 109 63.5 178t162.5 69q104 0 159 -69.5t55 -180.5v-18h-356q2 -65 40 -112t111 -47q93 0 142 81z "/>
<glyph glyph-name="f" horiz-adv-x="317" unicode="f" d="M299 476v-63h-101v-413h-83v413h-97v63h97v96q0 58 29 86.5t92 28.5q33 0 63 -6v-67q-24 3 -39 3q-40 0 -52 -18q-10 -15 -10 -49v-74h101z"/>
<glyph glyph-name="g" horiz-adv-x="551" unicode="g" d="M411 241q0 87 -40.5 132t-105.5 45q-64 0 -102 -47.5t-38 -128.5q0 -80 36.5 -126t101.5 -46q67 0 107.5 43t40.5 128zM55 -33l78 13q18 -110 131 -110q82 0 110.5 38t28.5 126l1 48q-18 -37 -59 -60t-94 -23q-95 0 -153 65t-58 177t59.5 179t151.5 67q51 0 91.5 -23 t60.5 -58v70h83v-447q0 -82 -21 -130q-23 -52 -72 -74.5t-130 -22.5q-185 0 -208 165z"/>
<glyph glyph-name="h" horiz-adv-x="527" unicode="h" d="M466 298v-298h-83v277q0 75 -26.5 106t-81.5 31q-58 0 -92 -40t-34 -99v-275h-83v680h83v-275q47 82 153 82q94 0 134 -61q30 -46 30 -128z"/>
<glyph glyph-name="i" horiz-adv-x="215" unicode="i" d="M149 680v-106h-83v106h83zM149 476v-476h-83v476h83z"/>
<glyph glyph-name="j" horiz-adv-x="215" unicode="j" d="M149 680v-106h-83v106h83zM-17 -199v69q12 -2 29 -2q36 0 46 18q8 13 8 49v541h83v-558q0 -39 -7 -59q-21 -61 -114 -61q-26 0 -45 3z"/>
<glyph glyph-name="k" horiz-adv-x="492" unicode="k" d="M275 290l213 -290h-104l-169 234l-66 -65v-169h-83v680h83v-416l217 212h104z"/>
<glyph glyph-name="l" horiz-adv-x="225" unicode="l" d="M154 680v-680h-83v680h83z"/>
<glyph glyph-name="m" horiz-adv-x="796" unicode="m" d="M359 0v271q0 57 -11 88q-21 56 -85 56q-48 0 -81 -40t-33 -98v-277h-83v476h83v-71q16 35 56 58.5t87 23.5q106 0 136 -90q19 38 60.5 64t97.5 26q108 0 138 -98q11 -36 11 -87v-302h-83v271q0 57 -11 88q-21 56 -85 56q-48 0 -81 -40t-33 -98v-277h-83z"/>
<glyph glyph-name="n" horiz-adv-x="527" unicode="n" d="M466 298v-298h-83v277q0 75 -26.5 106t-81.5 31q-58 0 -92 -40t-34 -99v-275h-83v476h83v-71q47 82 153 82q94 0 134 -61q30 -46 30 -128z"/>
<glyph glyph-name="o" horiz-adv-x="532" unicode="o" d="M124 237q0 -84 39 -132t103 -48t103 48t39 132q0 85 -38.5 133.5t-103.5 48.5t-103.5 -48.5t-38.5 -133.5zM39 236q0 114 63 182.5t164 68.5t164 -68.5t63 -182.5q0 -113 -62 -180.5t-165 -67.5t-165 67.5t-62 180.5z"/>
<glyph glyph-name="p" horiz-adv-x="551" unicode="p" d="M141 239q0 -87 41.5 -134t106.5 -47t101.5 48t36.5 133q0 86 -38 133t-102 47t-105 -46.5t-41 -133.5zM305 -12q-60 0 -100 25.5t-56 56.5v-260h-83v666h83v-70q16 31 55.5 56t97.5 25q92 0 151 -66.5t59 -183.5q0 -115 -57.5 -182t-149.5 -67z"/>
<glyph glyph-name="q" horiz-adv-x="551" unicode="q" d="M410 239q0 87 -41 133.5t-105 46.5t-102 -47t-38 -133q0 -85 36.5 -133t101.5 -48t106.5 47t41.5 134zM246 -12q-92 0 -149.5 67t-57.5 182q0 117 59 183.5t151 66.5q58 0 97.5 -25t55.5 -56v70h83v-666h-83v260q-16 -31 -56 -56.5t-100 -25.5z"/>
<glyph glyph-name="r" horiz-adv-x="340" unicode="r" d="M320 485v-79q-15 3 -31 3q-64 0 -102 -48t-38 -112v-249h-83v476h83v-90q8 41 51 71.5t93 30.5q17 0 27 -3z"/>
<glyph glyph-name="s" horiz-adv-x="461" unicode="s" d="M410 412l-54 -54q-54 60 -132 60q-41 0 -67.5 -17t-26.5 -48t24 -45t83 -27l55 -11q64 -14 100.5 -43.5t36.5 -87.5q0 -71 -55.5 -111t-143.5 -40q-64 0 -118.5 27t-85.5 67l54 56q62 -81 155 -81q50 0 79.5 20t29.5 55q0 31 -20 43.5t-63 20.5l-65 13q-150 29 -150 133 q0 71 54 108t128 37q61 0 108 -22t74 -53z"/>
<glyph glyph-name="t" horiz-adv-x="317" unicode="t" d="M12 413v63h92v190h83v-190h105v-63h-105v-295q0 -33 7 -45q9 -16 43 -16q23 0 55 6v-65q-40 -10 -83 -10q-80 0 -99 50q-6 17 -6 46v329h-92z"/>
<glyph glyph-name="u" horiz-adv-x="522" unicode="u" d="M61 205v271h83v-274q0 -65 16 -96q23 -45 92 -45q58 0 89.5 40.5t31.5 101.5v273h83v-476h-83v70q-46 -82 -152 -82q-78 0 -119 45q-23 26 -32 61t-9 111z"/>
<glyph glyph-name="v" horiz-adv-x="445" unicode="v" d="M434 476l-173 -476h-79l-170 476h87l99 -289q11 -31 27 -84h1q16 54 28 87l98 286h82z"/>
<glyph glyph-name="w" horiz-adv-x="730" unicode="w" d="M408 476l78 -261q19 -60 30 -102h1q18 66 31 105l83 258h86l-165 -476h-75l-83 271q-16 50 -26 89h-1q-9 -38 -26 -90l-86 -270h-78l-163 476h88l87 -261q16 -46 31 -102h1q14 54 30 103l85 260h72z"/>
<glyph glyph-name="x" horiz-adv-x="446" unicode="x" d="M272 252l163 -252h-100l-114 191l-120 -191h-91l166 247l-153 229h101l104 -167l105 167h92z"/>
<glyph glyph-name="y" horiz-adv-x="441" unicode="y" d="M431 476l-209 -573q-21 -59 -55 -80t-89 -21q-28 0 -60 6v67q33 -5 54 -5q41 0 60 19q15 15 26 48l21 61l-165 478h88l93 -288l26 -83h1q14 47 29 89l97 282h83z"/>
<glyph glyph-name="z" horiz-adv-x="441" unicode="z" d="M406 69v-69h-375v66l268 341h-255v69h359v-64l-274 -343h277z"/>
<glyph glyph-name="braceleft" horiz-adv-x="270" unicode="{" d="M32 235v59q41 12 50 36t9 85v122q0 80 28.5 111.5t99.5 31.5h17v-62q-39 0 -52 -16.5t-13 -66.5v-117q0 -74 -12.5 -107t-54.5 -46v-1q42 -13 54.5 -46t12.5 -107v-124q0 -50 13 -66.5t52 -16.5v-62h-17q-71 0 -99.5 31.5t-28.5 111.5v129q0 43 -2 61t-15 35t-42 25z"/>
<glyph glyph-name="bar" horiz-adv-x="221" unicode="|" d="M150 680v-838h-79v838h79z"/>
<glyph glyph-name="braceright" horiz-adv-x="270" unicode="}" d="M238 294v-59q-41 -12 -50 -36t-9 -85v-129q0 -80 -28.5 -111.5t-99.5 -31.5h-17v62q39 0 52 16.5t13 66.5v124q0 74 12.5 107t54.5 46v1q-42 13 -54.5 46t-12.5 107v117q0 50 -13 66.5t-52 16.5v62h17q71 0 99.5 -31.5t28.5 -111.5v-122q0 -43 2 -61t15 -35t42 -25z"/>
<glyph glyph-name="asciitilde" horiz-adv-x="548" unicode="~" d="M470 369l40 -68q-68 -85 -138 -85q-44 0 -116 39q-52 28 -86 28q-23 0 -40.5 -15t-48.5 -55l-42 65q58 90 132 90q43 0 121 -38q62 -30 83 -30q40 0 95 69z"/>
<glyph glyph-name="uni00A0" horiz-adv-x="200" unicode=" "/>
<glyph glyph-name="exclamdown" horiz-adv-x="212" unicode="¡" d="M150 351h-89v125h89v-125zM135 303l12 -168v-339h-83v339l13 168h58z"/>
<glyph glyph-name="cent" horiz-adv-x="501" unicode="¢" d="M127 237q0 -71 28.5 -116.5t76.5 -58.5v351q-49 -13 -77 -58.5t-28 -117.5zM467 358l-70 -42q-25 81 -93 98v-354q70 14 101 91l66 -41q-51 -104 -167 -120v-103h-72v104q-90 11 -140 76t-50 169q0 103 52 169.5t138 78.5v96h72v-95q119 -15 163 -127z"/>
<glyph glyph-name="sterling" horiz-adv-x="552" unicode="£" d="M373 301h-143q0 -12 1 -39t1 -37q0 -114 -52 -148q17 1 107 1h213v-78h-458v73q60 4 83 35t23 116q0 25 -3 77h-103v78h98q-3 87 -3 96q0 95 44.5 155t143.5 60q52 0 90.5 -17t59.5 -44.5t30.5 -58t9.5 -62.5l-81 -22q-2 130 -110 130q-54 0 -79.5 -37t-25.5 -100 q0 -17 5 -100h149v-78z"/>
<glyph glyph-name="currency" horiz-adv-x="544" unicode="¤" d="M146 283q0 -53 37 -91.5t89 -38.5q53 0 90 38.5t37 91.5q0 54 -36.5 92.5t-90.5 38.5q-52 0 -89 -38.5t-37 -92.5zM75 283q0 61 32 111q-12 12 -34 33.5t-28 27.5l57 57l61 -62q46 31 109 31q66 0 110 -31l60 60l56 -56l-59 -60q31 -50 31 -111q0 -64 -30 -111l58 -58 l-56 -56l-59 60q-47 -32 -111 -32q-67 0 -111 31l-60 -60l-56 56l61 61q-31 49 -31 109z"/>
<glyph glyph-name="yen" horiz-adv-x="596" unicode="¥" d="M67 291v73h145l-184 315h98l176 -313l166 313h100l-183 -315h144v-73h-186v-62h186v-73h-186v-156h-89v156h-187v73h187v62h-187z"/>
<glyph glyph-name="brokenbar" horiz-adv-x="226" unicode="¦" d="M154 134v-323h-82v323h82zM154 679v-323h-82v323h82z"/>
<glyph glyph-name="section" horiz-adv-x="493" unicode="§" d="M232 239l64 -30q67 21 67 84q0 34 -25.5 57t-74.5 43l-50 19q-35 -7 -55 -28.5t-20 -50.5q0 -32 21.5 -51t72.5 -43zM434 64q0 -72 -55.5 -112.5t-142.5 -40.5q-66 0 -120.5 26.5t-84.5 67.5l54 56q62 -81 156 -81q48 0 78 19.5t30 54.5q0 8 -2 15t-6.5 13.5t-8.5 11.5 t-12.5 11t-13.5 9.5t-15.5 8.5t-15.5 7.5t-16.5 7.5t-15.5 7l-50 23q-36 15 -56.5 26.5t-42.5 29.5t-31.5 42.5t-9.5 57.5q0 46 27.5 80t62.5 46q-62 44 -62 106q0 66 53.5 102t126.5 36q61 0 108.5 -22t74.5 -53l-54 -54q-54 60 -132 60q-40 0 -66.5 -17t-26.5 -45 q0 -17 5.5 -28.5t23.5 -23t27.5 -16t40.5 -17.5l58 -24q59 -25 92.5 -59t33.5 -89q0 -89 -80 -135q68 -43 68 -107z"/>
<glyph glyph-name="dieresis" horiz-adv-x="485" unicode="¨" d="M290 562v108h85v-108h-85zM110 562v108h85v-108h-85z"/>
<glyph glyph-name="copyright" horiz-adv-x="768" unicode="©" d="M652 349q0 114 -77 194.5t-190 80.5q-114 0 -191.5 -80.5t-77.5 -194.5t77.5 -195t191.5 -81q113 0 190 81t77 195zM724 349q0 -145 -97.5 -243.5t-241.5 -98.5q-145 0 -243 98.5t-98 243.5q0 144 98 243t243 99q144 0 241.5 -99t97.5 -243zM542 434l-60 -36 q-29 85 -98 85q-49 0 -77.5 -34.5t-28.5 -99.5t29 -100t77 -35q69 0 101 77l57 -37q-23 -48 -64 -75.5t-94 -27.5q-81 0 -129 52.5t-48 144.5t48.5 145t128.5 53q56 0 97 -29.5t61 -82.5z"/>
<glyph glyph-name="ordfeminine" horiz-adv-x="373" unicode="ª" d="M240 483v44q-6 -2 -36 -7l-34 -7q-22 -5 -32.5 -8.5t-21.5 -14t-11 -27.5q0 -49 61 -49q32 0 53 16.5t21 52.5zM331 412v-43q-14 -2 -32 -2q-48 0 -55 34q-29 -36 -91 -36q-49 0 -79 25.5t-30 72.5q0 45 27.5 64.5t85.5 29.5l60 11q6 1 7 1.5t5 1.5t5 2l3 3t2.5 4.5 t0.5 5.5v5q0 25 -13.5 38.5t-49.5 13.5q-71 0 -71 -65l-54 7q0 51 35.5 78.5t92.5 27.5q58 0 87 -21.5t29 -78.5v-154q0 -14 5.5 -19.5t18.5 -5.5h11z"/>
<glyph glyph-name="guillemotleft" horiz-adv-x="460" unicode="«" d="M200 132l-151 121v104l151 126v-96l-98 -77l98 -85v-93zM402 132l-151 121v104l151 126v-96l-98 -77l98 -85v-93z"/>
<glyph glyph-name="logicalnot" horiz-adv-x="563" unicode="¬" d="M498 454v-276h-75v210h-381v66h456z"/>
<glyph glyph-name="uni00AD" horiz-adv-x="384" unicode="­" d="M63 315h258v-87h-258v87z"/>
<glyph glyph-name="registered" horiz-adv-x="768" unicode="®" d="M298 375h87q47 0 61 7q28 13 28 48q0 37 -28 49q-14 7 -61 7h-87v-111zM298 313v-162h-67v396h162q53 0 82 -13q68 -30 68 -104q0 -43 -27 -73.5t-69 -39.5l116 -166h-83l-112 162h-70zM652 349q0 114 -77 194.5t-190 80.5q-114 0 -191.5 -80.5t-77.5 -194.5t77.5 -195 t191.5 -81q113 0 190 81t77 195zM724 349q0 -145 -97.5 -243.5t-241.5 -98.5q-145 0 -243 98.5t-98 243.5q0 144 98 243t243 99q144 0 241.5 -99t97.5 -243z"/>
<glyph glyph-name="macron" horiz-adv-x="471" unicode="¯" d="M100 582v67h271v-67h-271z"/>
<glyph glyph-name="degree" horiz-adv-x="373" unicode="°" d="M112 546q0 -32 22 -54t53 -22t53 22t22 54t-22 54t-53 22t-53 -22t-22 -54zM38 546q0 62 43 104t106 42t105.5 -42t42.5 -104t-42.5 -104.5t-105.5 -42.5t-106 42.5t-43 104.5z"/>
<glyph glyph-name="plusminus" horiz-adv-x="690" unicode="±" d="M638 0h-586v76h586v-76zM384 312v-209h-77v209h-255v76h255v208h77v-208h254v-76h-254z"/>
<glyph glyph-name="twosuperior" horiz-adv-x="395" unicode="²" d="M138 490l-73 6q-14 25 -14 59q0 55 40 94.5t106 39.5q69 0 106.5 -39t37.5 -100q0 -31 -11.5 -61t-27 -51t-43 -45t-46 -37.5t-50.5 -34.5v-2q47 2 99 2h77v-59h-282v55q64 38 140 104q72 64 72 126q0 39 -20.5 60t-54.5 21t-53.5 -21t-19.5 -51q0 -31 17 -66z"/>
<glyph glyph-name="threesuperior" horiz-adv-x="383" unicode="³" d="M38 388l70 16q3 -88 80 -88q38 0 59.5 18.5t21.5 52.5q0 67 -96 67h-30v59h25q43 0 67 12.5t24 46.5q0 59 -70 59q-36 0 -55 -21t-21 -54l-63 15q0 40 37 79.5t106 39.5q63 0 99.5 -29.5t36.5 -77.5q0 -68 -59 -94q69 -30 69 -104q0 -58 -41.5 -94t-111.5 -36 q-65 0 -104.5 36t-43.5 97z"/>
<glyph glyph-name="acute" horiz-adv-x="447" unicode="´" d="M240 680h106l-102 -128h-73z"/>
<glyph glyph-name="mu" horiz-adv-x="516" unicode="µ" d="M238 -12q-27 0 -51 9t-33 19v-206h-86v666h84v-274q0 -65 16 -96q23 -45 92 -45q58 0 89.5 40.5t31.5 101.5v273h83v-476h-83v70q-46 -82 -143 -82z"/>
<glyph glyph-name="paragraph" horiz-adv-x="643" unicode="¶" d="M275 -128v412h-9q-67 0 -104.5 11t-66.5 34q-67 53 -67 153t67 153q29 23 66.5 34t104.5 11h342v-65h-79v-743h-71v743h-111v-743h-72z"/>
<glyph glyph-name="periodcentered" horiz-adv-x="218" unicode="·" d="M62 377h95v-114h-95v114z"/>
<glyph glyph-name="cedilla" horiz-adv-x="359" unicode="¸" d="M100 -57l47 64h55l-29 -41h3q36 0 59.5 -19t23.5 -54q0 -43 -29 -64.5t-70 -21.5q-27 0 -54 10l12 38q15 -6 35 -6q47 0 47 36q0 35 -43 35q-22 0 -37 -9z"/>
<glyph glyph-name="onesuperior" horiz-adv-x="262" unicode="¹" d="M198 680v-418h-69v280h-102v55h24q43 0 62 16q23 19 25 67h60z"/>
<glyph glyph-name="ordmasculine" horiz-adv-x="369" unicode="º" d="M101 539q0 -51 23.5 -81t60.5 -30q36 0 59.5 30t23.5 81t-23 81t-60 30t-60.5 -30.5t-23.5 -80.5zM41 539q0 74 39.5 118.5t104.5 44.5t104 -44.5t39 -118.5q0 -76 -38.5 -119.5t-104.5 -43.5t-105 44t-39 119z"/>
<glyph glyph-name="guillemotright" horiz-adv-x="460" unicode="»" d="M411 253l-151 -121v93l98 85l-98 77v96l151 -126v-104zM209 253l-151 -121v93l98 85l-98 77v96l151 -126v-104z"/>
<glyph glyph-name="onequarter" horiz-adv-x="761" unicode="¼" d="M579 680l-353 -680h-75l354 680h74zM477 165h110v74q0 37 4 93h-1q-7 -17 -21 -38l-40 -60q-11 -16 -24 -33.5t-21 -26.5zM655 106v-106h-68v106h-189v46l193 270h64v-257h77v-59h-77zM203 680v-418h-69v280h-102v55h24q43 0 62 16q23 19 25 67h60z"/>
<glyph glyph-name="onehalf" horiz-adv-x="798" unicode="½" d="M576 680l-353 -680h-75l354 680h74zM201 680v-418h-69v280h-102v55h24q43 0 62 16q23 19 25 67h60zM556 228l-73 6q-14 25 -14 59q0 55 40 94.5t106 39.5q69 0 106.5 -39t37.5 -100q0 -31 -11.5 -61t-27 -51t-43 -45t-46 -37.5t-50.5 -34.5v-2q47 2 99 2h77v-59h-282v55 q64 38 140 104q72 64 72 126q0 39 -20.5 60t-54.5 21t-53.5 -21t-19.5 -51q0 -31 17 -66z"/>
<glyph glyph-name="threequarters" horiz-adv-x="853" unicode="¾" d="M569 165h110v74q0 37 4 93h-1q-7 -17 -21 -38l-40 -60q-11 -16 -24 -33.5t-21 -26.5zM747 106v-106h-68v106h-189v46l193 270h64v-257h77v-59h-77zM671 680l-353 -680h-75l354 680h74zM34 388l70 16q3 -88 80 -88q38 0 59.5 18.5t21.5 52.5q0 67 -96 67h-30v59h25 q43 0 67 12.5t24 46.5q0 59 -70 59q-36 0 -55 -21t-21 -54l-63 15q0 40 37 79.5t106 39.5q63 0 99.5 -29.5t36.5 -77.5q0 -68 -59 -94q69 -30 69 -104q0 -58 -41.5 -94t-111.5 -36q-65 0 -104.5 36t-43.5 97z"/>
<glyph glyph-name="questiondown" horiz-adv-x="468" unicode="¿" d="M296 366h-90v111h90v-111zM334 72l91 -13q16 -29 16 -83q0 -80 -58 -133.5t-151 -53.5q-98 0 -151.5 50t-53.5 128q0 63 26 107.5t75 90.5l26 24q29 26 40.5 47t11.5 59v31h89v-38q0 -47 -14.5 -76.5t-58.5 -69.5l-37 -33q-69 -61 -69 -131q0 -50 31.5 -82.5t87.5 -32.5 q55 0 87.5 33.5t32.5 83.5q0 22 -5.5 45t-10.5 35z"/>
<glyph glyph-name="Agrave" horiz-adv-x="594" unicode="À" d="M398 272l-77 224q-20 53 -26 80h-1q-13 -43 -26 -81l-76 -223h206zM166 196l-68 -196h-92l243 680h98l239 -680h-95l-68 196h-257zM369 744h-85l-142 145h122z"/>
<glyph glyph-name="Aacute" horiz-adv-x="594" unicode="Á" d="M398 272l-77 224q-20 53 -26 80h-1q-13 -43 -26 -81l-76 -223h206zM166 196l-68 -196h-92l243 680h98l239 -680h-95l-68 196h-257zM326 744h-85l105 145h122z"/>
<glyph glyph-name="Acircumflex" horiz-adv-x="594" unicode="Â" d="M398 272l-77 224q-20 53 -26 80h-1q-13 -43 -26 -81l-76 -223h206zM166 196l-68 -196h-92l243 680h98l239 -680h-95l-68 196h-257zM297 827l-60 -83h-85l107 146h77l106 -146h-83z"/>
<glyph glyph-name="Atilde" horiz-adv-x="594" unicode="Ã" d="M398 272l-77 224q-20 53 -26 80h-1q-13 -43 -26 -81l-76 -223h206zM166 196l-68 -196h-92l243 680h98l239 -680h-95l-68 196h-257zM404 872l66 -17q-10 -23 -17.5 -36.5t-20.5 -30.5t-29.5 -25.5t-37.5 -8.5q-30 0 -78 25q-2 1 -14 8t-20.5 10t-16.5 3q-14 0 -23.5 -15.5 t-12.5 -31.5l-67 14q37 102 107 102q30 0 67 -21q41 -23 56 -23q25 0 41 47z"/>
<glyph glyph-name="Adieresis" horiz-adv-x="594" unicode="Ä" d="M398 272l-77 224q-20 53 -26 80h-1q-13 -43 -26 -81l-76 -223h206zM166 196l-68 -196h-92l243 680h98l239 -680h-95l-68 196h-257zM347 751v108h85v-108h-85zM167 751v108h85v-108h-85z"/>
<glyph glyph-name="Aring" horiz-adv-x="594" unicode="Å" d="M398 272l-77 224q-20 53 -26 80h-1q-13 -43 -26 -81l-76 -223h206zM166 196l-68 -196h-92l243 680h98l239 -680h-95l-68 196h-257zM255 806q0 -16 11.5 -27.5t27.5 -11.5t27.5 11.5t11.5 27.5t-11.5 27.5t-27.5 11.5t-27.5 -11.5t-11.5 -27.5zM196 806q0 41 29 69.5 t70 28.5t70 -28.5t29 -69.5t-29 -69.5t-70 -28.5t-70 28.5t-29 69.5z"/>
<glyph glyph-name="AE" horiz-adv-x="941" unicode="Æ" d="M431 260v212q0 100 2 138h-2q-6 -10 -23.5 -42.5t-23.5 -43.5l-154 -264h201zM906 0h-475v181h-245l-105 -181h-102l405 680h502v-78h-367v-212h333v-79h-333v-232h387v-79z"/>
<glyph glyph-name="Ccedilla" horiz-adv-x="648" unicode="Ç" d="M541 195l80 -40q-36 -75 -99.5 -118.5t-148.5 -47.5l-13 -23h3q36 0 59.5 -19t23.5 -54q0 -43 -29 -64.5t-70 -21.5q-27 0 -54 10l12 38q15 -6 35 -6q47 0 47 36q0 35 -43 35q-22 0 -37 -9l-20 32l34 47q-125 11 -201.5 103.5t-76.5 246.5q0 157 84 254.5t226 97.5 q88 0 155.5 -41t106.5 -114l-75 -51q-54 129 -187 129q-101 0 -159.5 -74.5t-58.5 -200.5q0 -125 58.5 -200t159.5 -75q65 0 113 34t75 96z"/>
<glyph glyph-name="Egrave" horiz-adv-x="588" unicode="È" d="M553 79v-79h-474v680h455v-79h-367v-212h333v-79h-333v-231h386zM379 744h-85l-142 145h122z"/>
<glyph glyph-name="Eacute" horiz-adv-x="588" unicode="É" d="M553 79v-79h-474v680h455v-79h-367v-212h333v-79h-333v-231h386zM324 744h-85l105 145h122z"/>
<glyph glyph-name="Ecircumflex" horiz-adv-x="588" unicode="Ê" d="M553 79v-79h-474v680h455v-79h-367v-212h333v-79h-333v-231h386zM311 827l-60 -83h-85l107 146h77l106 -146h-83z"/>
<glyph glyph-name="Edieresis" horiz-adv-x="588" unicode="Ë" d="M553 79v-79h-474v680h455v-79h-367v-212h333v-79h-333v-231h386zM355 751v108h85v-108h-85zM175 751v108h85v-108h-85z"/>
<glyph glyph-name="Igrave" horiz-adv-x="246" unicode="Ì" d="M170 744h-85l-142 145h122zM167 680v-680h-88v680h88z"/>
<glyph glyph-name="Iacute" horiz-adv-x="246" unicode="Í" d="M162 744h-85l105 145h122zM167 680v-680h-88v680h88z"/>
<glyph glyph-name="Icircumflex" horiz-adv-x="246" unicode="Î" d="M123 827l-60 -83h-85l107 146h77l106 -146h-83zM167 680v-680h-88v680h88z"/>
<glyph glyph-name="Idieresis" horiz-adv-x="246" unicode="Ï" d="M171 751v108h85v-108h-85zM-9 751v108h85v-108h-85zM167 680v-680h-88v680h88z"/>
<glyph glyph-name="Eth" horiz-adv-x="667" unicode="Ð" d="M171 600v-201h222v-77h-222v-244h94q52 0 77 1.5t56.5 11t55.5 29.5q36 30 58 87.5t22 130.5q0 66 -22 125.5t-61 93.5q-33 28 -74.5 35.5t-124.5 7.5h-81zM245 0h-162v322h-63v77h63v280h166q98 0 150 -8t97 -41q57 -42 91.5 -118t34.5 -170q0 -171 -100 -271 q-50 -49 -105 -60t-172 -11z"/>
<glyph glyph-name="Ntilde" horiz-adv-x="703" unicode="Ñ" d="M166 680l320 -457q38 -54 51 -77h1q-2 50 -2 110v424h88v-680h-87l-318 458q-41 59 -53 82h-1q2 -44 2 -84v-456h-88v680h87zM462 872l66 -17q-10 -23 -17.5 -36.5t-20.5 -30.5t-29.5 -25.5t-37.5 -8.5q-30 0 -78 25q-2 1 -14 8t-20.5 10t-16.5 3q-14 0 -23.5 -15.5 t-12.5 -31.5l-67 14q37 102 107 102q30 0 67 -21q41 -23 56 -23q25 0 41 47z"/>
<glyph glyph-name="Ograve" horiz-adv-x="704" unicode="Ò" d="M135 340q0 -125 58 -199.5t159 -74.5q100 0 158 74.5t58 199.5t-57.5 199.5t-158.5 74.5t-159 -74t-58 -200zM43 340q0 157 84 254.5t225 97.5q140 0 224 -97.5t84 -254.5t-83 -254.5t-225 -97.5q-141 0 -225 97.5t-84 254.5zM425 744h-85l-142 145h122z"/>
<glyph glyph-name="Oacute" horiz-adv-x="704" unicode="Ó" d="M135 340q0 -125 58 -199.5t159 -74.5q100 0 158 74.5t58 199.5t-57.5 199.5t-158.5 74.5t-159 -74t-58 -200zM43 340q0 157 84 254.5t225 97.5q140 0 224 -97.5t84 -254.5t-83 -254.5t-225 -97.5q-141 0 -225 97.5t-84 254.5zM364 744h-85l105 145h122z"/>
<glyph glyph-name="Ocircumflex" horiz-adv-x="704" unicode="Ô" d="M135 340q0 -125 58 -199.5t159 -74.5q100 0 158 74.5t58 199.5t-57.5 199.5t-158.5 74.5t-159 -74t-58 -200zM43 340q0 157 84 254.5t225 97.5q140 0 224 -97.5t84 -254.5t-83 -254.5t-225 -97.5q-141 0 -225 97.5t-84 254.5zM354 827l-60 -83h-85l107 146h77l106 -146 h-83z"/>
<glyph glyph-name="Otilde" horiz-adv-x="704" unicode="Õ" d="M135 340q0 -125 58 -199.5t159 -74.5q100 0 158 74.5t58 199.5t-57.5 199.5t-158.5 74.5t-159 -74t-58 -200zM43 340q0 157 84 254.5t225 97.5q140 0 224 -97.5t84 -254.5t-83 -254.5t-225 -97.5q-141 0 -225 97.5t-84 254.5zM459 872l66 -17q-10 -23 -17.5 -36.5 t-20.5 -30.5t-29.5 -25.5t-37.5 -8.5q-30 0 -78 25q-2 1 -14 8t-20.5 10t-16.5 3q-14 0 -23.5 -15.5t-12.5 -31.5l-67 14q37 102 107 102q30 0 67 -21q41 -23 56 -23q25 0 41 47z"/>
<glyph glyph-name="Odieresis" horiz-adv-x="704" unicode="Ö" d="M135 340q0 -125 58 -199.5t159 -74.5q100 0 158 74.5t58 199.5t-57.5 199.5t-158.5 74.5t-159 -74t-58 -200zM43 340q0 157 84 254.5t225 97.5q140 0 224 -97.5t84 -254.5t-83 -254.5t-225 -97.5q-141 0 -225 97.5t-84 254.5zM402 751v108h85v-108h-85zM222 751v108h85 v-108h-85z"/>
<glyph glyph-name="multiply" horiz-adv-x="634" unicode="×" d="M538 19l-221 220l-221 -221l-55 55l221 221l-220 221l54 54l220 -221l222 222l55 -55l-222 -222l221 -220z"/>
<glyph glyph-name="Oslash" horiz-adv-x="707" unicode="Ø" d="M137 340q0 -84 27 -146l328 368q-55 52 -138 52q-101 0 -159 -74t-58 -200zM570 340q0 92 -32 158l-332 -371q56 -61 148 -61q100 0 158 74.5t58 199.5zM45 340q0 157 84 254.5t225 97.5q113 0 194 -68l80 90l58 -50l-87 -97q63 -92 63 -227q0 -157 -83 -254.5 t-225 -97.5q-124 0 -205 76l-71 -80l-57 50l80 89q-56 90 -56 217z"/>
<glyph glyph-name="Ugrave" horiz-adv-x="660" unicode="Ù" d="M330 -13q-158 0 -222 107q-19 33 -27 72.5t-8 113.5v400h88v-399q0 -109 25 -150q39 -66 144 -66t144 66q25 41 25 150v399h88v-400q0 -74 -8 -113.5t-27 -72.5q-64 -107 -222 -107zM404 744h-85l-142 145h122z"/>
<glyph glyph-name="Uacute" horiz-adv-x="660" unicode="Ú" d="M330 -13q-158 0 -222 107q-19 33 -27 72.5t-8 113.5v400h88v-399q0 -109 25 -150q39 -66 144 -66t144 66q25 41 25 150v399h88v-400q0 -74 -8 -113.5t-27 -72.5q-64 -107 -222 -107zM345 744h-85l105 145h122z"/>
<glyph glyph-name="Ucircumflex" horiz-adv-x="660" unicode="Û" d="M330 -13q-158 0 -222 107q-19 33 -27 72.5t-8 113.5v400h88v-399q0 -109 25 -150q39 -66 144 -66t144 66q25 41 25 150v399h88v-400q0 -74 -8 -113.5t-27 -72.5q-64 -107 -222 -107zM332 827l-60 -83h-85l107 146h77l106 -146h-83z"/>
<glyph glyph-name="Udieresis" horiz-adv-x="660" unicode="Ü" d="M330 -13q-158 0 -222 107q-19 33 -27 72.5t-8 113.5v400h88v-399q0 -109 25 -150q39 -66 144 -66t144 66q25 41 25 150v399h88v-400q0 -74 -8 -113.5t-27 -72.5q-64 -107 -222 -107zM380 751v108h85v-108h-85zM200 751v108h85v-108h-85z"/>
<glyph glyph-name="Yacute" horiz-adv-x="591" unicode="Ý" d="M338 278v-278h-88v278l-246 402h101l194 -318l199 318h99zM323 744h-85l105 145h122z"/>
<glyph glyph-name="Thorn" horiz-adv-x="599" unicode="Þ" d="M167 493v-226h159q58 0 93 12q66 24 66 101t-66 101q-35 12 -93 12h-159zM167 190v-190h-88v680h88v-110h162q86 0 134 -20q111 -49 111 -170q0 -106 -86 -158q-33 -20 -70.5 -26t-99.5 -6h-151z"/>
<glyph glyph-name="germandbls" horiz-adv-x="484" unicode="ß" d="M149 451v-451h-83v455q0 111 22 155q42 82 156 82q86 0 129.5 -43t43.5 -113q0 -94 -67 -128q91 -40 91 -197q0 -115 -38 -166t-111 -51q-62 0 -89 35q-28 36 -28 121v33h61v-19q0 -49 8 -73q13 -32 45 -32q39 0 54 36.5t15 116.5q0 101 -37 131q-27 21 -100 21h-23v66 h16q55 0 78 10q40 17 40 89q0 44 -23 69.5t-64 25.5q-64 0 -84 -51q-12 -33 -12 -122z"/>
<glyph glyph-name="agrave" horiz-adv-x="498" unicode="à" d="M344 155v87q-13 -6 -55 -14l-46 -10q-72 -16 -93 -31q-25 -17 -25 -52q0 -40 28 -61.5t73 -21.5q50 0 84 25.5t34 77.5zM476 51v-58q-20 -4 -47 -4q-75 0 -80 64h-1q-40 -66 -147 -66q-74 0 -118 38t-44 106q0 75 61 111q39 23 139 41l65 11q24 4 32 9.5t8 19.5v10 q0 42 -21 64t-80 22q-112 0 -112 -101l-80 9q-1 77 55 118t141 41q87 0 132 -33t45 -117v-242q0 -24 9.5 -33.5t31.5 -9.5h11zM142 680h106l69 -128h-73z"/>
<glyph glyph-name="aacute" horiz-adv-x="498" unicode="á" d="M344 155v87q-13 -6 -55 -14l-46 -10q-72 -16 -93 -31q-25 -17 -25 -52q0 -40 28 -61.5t73 -21.5q50 0 84 25.5t34 77.5zM476 51v-58q-20 -4 -47 -4q-75 0 -80 64h-1q-40 -66 -147 -66q-74 0 -118 38t-44 106q0 75 61 111q39 23 139 41l65 11q24 4 32 9.5t8 19.5v10 q0 42 -21 64t-80 22q-112 0 -112 -101l-80 9q-1 77 55 118t141 41q87 0 132 -33t45 -117v-242q0 -24 9.5 -33.5t31.5 -9.5h11zM262 680h106l-102 -128h-73z"/>
<glyph glyph-name="acircumflex" horiz-adv-x="498" unicode="â" d="M344 155v87q-13 -6 -55 -14l-46 -10q-72 -16 -93 -31q-25 -17 -25 -52q0 -40 28 -61.5t73 -21.5q50 0 84 25.5t34 77.5zM476 51v-58q-20 -4 -47 -4q-75 0 -80 64h-1q-40 -66 -147 -66q-74 0 -118 38t-44 106q0 75 61 111q39 23 139 41l65 11q24 4 32 9.5t8 19.5v10 q0 42 -21 64t-80 22q-112 0 -112 -101l-80 9q-1 77 55 118t141 41q87 0 132 -33t45 -117v-242q0 -24 9.5 -33.5t31.5 -9.5h11zM246 618l-60 -66h-77l98 128h79l99 -128h-75z"/>
<glyph glyph-name="atilde" horiz-adv-x="498" unicode="ã" d="M344 155v87q-13 -6 -55 -14l-46 -10q-72 -16 -93 -31q-25 -17 -25 -52q0 -40 28 -61.5t73 -21.5q50 0 84 25.5t34 77.5zM476 51v-58q-20 -4 -47 -4q-75 0 -80 64h-1q-40 -66 -147 -66q-74 0 -118 38t-44 106q0 75 61 111q39 23 139 41l65 11q24 4 32 9.5t8 19.5v10 q0 42 -21 64t-80 22q-112 0 -112 -101l-80 9q-1 77 55 118t141 41q87 0 132 -33t45 -117v-242q0 -24 9.5 -33.5t31.5 -9.5h11zM356 681l66 -17q-10 -23 -17.5 -36.5t-20.5 -30.5t-29.5 -25.5t-37.5 -8.5q-30 0 -78 25q-2 1 -14 8t-20.5 10t-16.5 3q-14 0 -23.5 -15.5 t-12.5 -31.5l-67 14q37 102 107 102q30 0 67 -21q41 -23 56 -23q25 0 41 47z"/>
<glyph glyph-name="adieresis" horiz-adv-x="498" unicode="ä" d="M344 155v87q-13 -6 -55 -14l-46 -10q-72 -16 -93 -31q-25 -17 -25 -52q0 -40 28 -61.5t73 -21.5q50 0 84 25.5t34 77.5zM476 51v-58q-20 -4 -47 -4q-75 0 -80 64h-1q-40 -66 -147 -66q-74 0 -118 38t-44 106q0 75 61 111q39 23 139 41l65 11q24 4 32 9.5t8 19.5v10 q0 42 -21 64t-80 22q-112 0 -112 -101l-80 9q-1 77 55 118t141 41q87 0 132 -33t45 -117v-242q0 -24 9.5 -33.5t31.5 -9.5h11zM303 562v108h85v-108h-85zM123 562v108h85v-108h-85z"/>
<glyph glyph-name="aring" horiz-adv-x="498" unicode="å" d="M344 155v87q-13 -6 -55 -14l-46 -10q-72 -16 -93 -31q-25 -17 -25 -52q0 -40 28 -61.5t73 -21.5q50 0 84 25.5t34 77.5zM476 51v-58q-20 -4 -47 -4q-75 0 -80 64h-1q-40 -66 -147 -66q-74 0 -118 38t-44 106q0 75 61 111q39 23 139 41l65 11q24 4 32 9.5t8 19.5v10 q0 42 -21 64t-80 22q-112 0 -112 -101l-80 9q-1 77 55 118t141 41q87 0 132 -33t45 -117v-242q0 -24 9.5 -33.5t31.5 -9.5h11zM206 610q0 -16 11.5 -27.5t27.5 -11.5t27.5 11.5t11.5 27.5t-11.5 27.5t-27.5 11.5t-27.5 -11.5t-11.5 -27.5zM147 610q0 41 29 69.5t70 28.5 t70 -28.5t29 -69.5t-29 -69.5t-70 -28.5t-70 28.5t-29 69.5z"/>
<glyph glyph-name="ae" horiz-adv-x="810" unicode="æ" d="M559 420q-55 0 -93.5 -36.5t-45.5 -98.5h267q-5 64 -38.5 99.5t-89.5 35.5zM344 155v87q-13 -6 -55 -14l-46 -10q-72 -16 -93 -31q-25 -17 -25 -52q0 -40 28 -61.5t73 -21.5q50 0 84 25.5t34 77.5zM560 -12q-114 0 -176 79q-18 -27 -65 -53.5t-113 -26.5q-76 0 -121.5 38 t-45.5 106q0 75 61 111q39 23 139 41l65 11q24 4 32 9.5t8 19.5v10q0 42 -21 64t-80 22q-112 0 -112 -101l-80 9q-1 77 55 118t141 41q118 0 156 -60q64 61 156 61q103 0 158.5 -70t55.5 -181v-17h-356q2 -64 39 -111.5t110 -47.5q94 0 145 84l60 -45q-73 -111 -211 -111z "/>
<glyph glyph-name="ccedilla" horiz-adv-x="496" unicode="ç" d="M403 143l65 -33q-55 -113 -184 -121l-14 -23h3q36 0 59.5 -19t23.5 -54q0 -43 -29 -64.5t-70 -21.5q-27 0 -54 10l12 38q15 -6 35 -6q47 0 47 36q0 35 -43 35q-22 0 -37 -9l-20 32l36 47q-91 10 -142.5 75t-51.5 171q0 114 62.5 182.5t163.5 68.5q148 0 199 -129l-69 -36 q-34 96 -130 96q-64 0 -102.5 -48t-38.5 -133q0 -84 39.5 -132t101.5 -48q99 0 138 86z"/>
<glyph glyph-name="egrave" horiz-adv-x="516" unicode="è" d="M265 420q-55 0 -93.5 -36.5t-45.5 -98.5h267q-5 64 -38.5 99.5t-89.5 35.5zM416 141l60 -43q-10 -15 -23.5 -29.5t-38.5 -35t-64 -33t-84 -12.5q-103 0 -165 67t-62 185q0 109 63.5 178t162.5 69q104 0 159 -69.5t55 -180.5v-18h-356q2 -65 40 -112t111 -47q93 0 142 81z M147 680h106l69 -128h-73z"/>
<glyph glyph-name="eacute" horiz-adv-x="516" unicode="é" d="M265 420q-55 0 -93.5 -36.5t-45.5 -98.5h267q-5 64 -38.5 99.5t-89.5 35.5zM416 141l60 -43q-10 -15 -23.5 -29.5t-38.5 -35t-64 -33t-84 -12.5q-103 0 -165 67t-62 185q0 109 63.5 178t162.5 69q104 0 159 -69.5t55 -180.5v-18h-356q2 -65 40 -112t111 -47q93 0 142 81z M284 680h106l-102 -128h-73z"/>
<glyph glyph-name="ecircumflex" horiz-adv-x="516" unicode="ê" d="M265 420q-55 0 -93.5 -36.5t-45.5 -98.5h267q-5 64 -38.5 99.5t-89.5 35.5zM416 141l60 -43q-10 -15 -23.5 -29.5t-38.5 -35t-64 -33t-84 -12.5q-103 0 -165 67t-62 185q0 109 63.5 178t162.5 69q104 0 159 -69.5t55 -180.5v-18h-356q2 -65 40 -112t111 -47q93 0 142 81z M268 618l-60 -66h-77l98 128h79l99 -128h-75z"/>
<glyph glyph-name="edieresis" horiz-adv-x="516" unicode="ë" d="M265 420q-55 0 -93.5 -36.5t-45.5 -98.5h267q-5 64 -38.5 99.5t-89.5 35.5zM416 141l60 -43q-10 -15 -23.5 -29.5t-38.5 -35t-64 -33t-84 -12.5q-103 0 -165 67t-62 185q0 109 63.5 178t162.5 69q104 0 159 -69.5t55 -180.5v-18h-356q2 -65 40 -112t111 -47q93 0 142 81z M317 562v108h85v-108h-85zM137 562v108h85v-108h-85z"/>
<glyph glyph-name="igrave" horiz-adv-x="215" unicode="ì" d="M-24 680h106l69 -128h-73zM149 476v-476h-83v476h83z"/>
<glyph glyph-name="iacute" horiz-adv-x="215" unicode="í" d="M137 680h106l-102 -128h-73zM149 476v-476h-83v476h83z"/>
<glyph glyph-name="icircumflex" horiz-adv-x="215" unicode="î" d="M107 618l-60 -66h-77l98 128h79l99 -128h-75zM149 476v-476h-83v476h83z"/>
<glyph glyph-name="idieresis" horiz-adv-x="215" unicode="ï" d="M154 562v108h85v-108h-85zM-26 562v108h85v-108h-85zM149 476v-476h-83v476h83z"/>
<glyph glyph-name="eth" horiz-adv-x="524" unicode="ð" d="M214 685l64 37q57 -62 81 -94l103 34l21 -57l-89 -28q87 -147 87 -320q0 -120 -55.5 -194.5t-166.5 -74.5q-101 0 -160.5 68.5t-59.5 183.5q0 114 60 180t159 66q61 0 112 -34q-25 69 -47 102q-19 -6 -73.5 -24.5t-82.5 -26.5l-21 58l141 44q-30 39 -73 80zM122 241 q0 -83 37.5 -131.5t99.5 -48.5q63 0 100.5 48.5t37.5 131.5q0 84 -37 129t-101 45t-100.5 -45t-36.5 -129z"/>
<glyph glyph-name="ntilde" horiz-adv-x="527" unicode="ñ" d="M466 298v-298h-83v277q0 75 -26.5 106t-81.5 31q-58 0 -92 -40t-34 -99v-275h-83v476h83v-71q47 82 153 82q94 0 134 -61q30 -46 30 -128zM380 681l66 -17q-10 -23 -17.5 -36.5t-20.5 -30.5t-29.5 -25.5t-37.5 -8.5q-30 0 -78 25q-2 1 -14 8t-20.5 10t-16.5 3 q-14 0 -23.5 -15.5t-12.5 -31.5l-67 14q37 102 107 102q30 0 67 -21q41 -23 56 -23q25 0 41 47z"/>
<glyph glyph-name="ograve" horiz-adv-x="532" unicode="ò" d="M155 680h106l69 -128h-73zM124 237q0 -84 39 -132t103 -48t103 48t39 132q0 85 -38.5 133.5t-103.5 48.5t-103.5 -48.5t-38.5 -133.5zM39 236q0 114 63 182.5t164 68.5t164 -68.5t63 -182.5q0 -113 -62 -180.5t-165 -67.5t-165 67.5t-62 180.5z"/>
<glyph glyph-name="oacute" horiz-adv-x="532" unicode="ó" d="M283 680h106l-102 -128h-73zM124 237q0 -84 39 -132t103 -48t103 48t39 132q0 85 -38.5 133.5t-103.5 48.5t-103.5 -48.5t-38.5 -133.5zM39 236q0 114 63 182.5t164 68.5t164 -68.5t63 -182.5q0 -113 -62 -180.5t-165 -67.5t-165 67.5t-62 180.5z"/>
<glyph glyph-name="ocircumflex" horiz-adv-x="532" unicode="ô" d="M267 618l-60 -66h-77l98 128h79l99 -128h-75zM124 237q0 -84 39 -132t103 -48t103 48t39 132q0 85 -38.5 133.5t-103.5 48.5t-103.5 -48.5t-38.5 -133.5zM39 236q0 114 63 182.5t164 68.5t164 -68.5t63 -182.5q0 -113 -62 -180.5t-165 -67.5t-165 67.5t-62 180.5z"/>
<glyph glyph-name="otilde" horiz-adv-x="532" unicode="õ" d="M372 681l66 -17q-10 -23 -17.5 -36.5t-20.5 -30.5t-29.5 -25.5t-37.5 -8.5q-30 0 -78 25q-2 1 -14 8t-20.5 10t-16.5 3q-14 0 -23.5 -15.5t-12.5 -31.5l-67 14q37 102 107 102q30 0 67 -21q41 -23 56 -23q25 0 41 47zM124 237q0 -84 39 -132t103 -48t103 48t39 132 q0 85 -38.5 133.5t-103.5 48.5t-103.5 -48.5t-38.5 -133.5zM39 236q0 114 63 182.5t164 68.5t164 -68.5t63 -182.5q0 -113 -62 -180.5t-165 -67.5t-165 67.5t-62 180.5z"/>
<glyph glyph-name="odieresis" horiz-adv-x="532" unicode="ö" d="M315 562v108h85v-108h-85zM135 562v108h85v-108h-85zM124 237q0 -84 39 -132t103 -48t103 48t39 132q0 85 -38.5 133.5t-103.5 48.5t-103.5 -48.5t-38.5 -133.5zM39 236q0 114 63 182.5t164 68.5t164 -68.5t63 -182.5q0 -113 -62 -180.5t-165 -67.5t-165 67.5t-62 180.5z "/>
<glyph glyph-name="divide" horiz-adv-x="781" unicode="÷" d="M343 476h95v-109h-95v109zM343 109h95v-109h-95v109zM727 200h-673v76h673v-76z"/>
<glyph glyph-name="oslash" horiz-adv-x="532" unicode="ø" d="M389 337l-198 -258q33 -22 75 -22q64 0 103 48t39 132q0 57 -19 100zM142 140l199 257q-33 22 -75 22q-65 0 -103.5 -48.5t-38.5 -133.5q0 -58 18 -97zM494 473l-53 -69q52 -66 52 -168q0 -113 -62 -180.5t-165 -67.5q-68 0 -121 31l-46 -61l-60 48l49 64q-49 66 -49 166 q0 114 63 182.5t164 68.5q67 0 119 -32l48 62z"/>
<glyph glyph-name="ugrave" horiz-adv-x="522" unicode="ù" d="M146 680h106l69 -128h-73zM61 205v271h83v-274q0 -65 16 -96q23 -45 92 -45q58 0 89.5 40.5t31.5 101.5v273h83v-476h-83v70q-46 -82 -152 -82q-78 0 -119 45q-23 26 -32 61t-9 111z"/>
<glyph glyph-name="uacute" horiz-adv-x="522" unicode="ú" d="M275 680h106l-102 -128h-73zM61 205v271h83v-274q0 -65 16 -96q23 -45 92 -45q58 0 89.5 40.5t31.5 101.5v273h83v-476h-83v70q-46 -82 -152 -82q-78 0 -119 45q-23 26 -32 61t-9 111z"/>
<glyph glyph-name="ucircumflex" horiz-adv-x="522" unicode="û" d="M259 618l-60 -66h-77l98 128h79l99 -128h-75zM61 205v271h83v-274q0 -65 16 -96q23 -45 92 -45q58 0 89.5 40.5t31.5 101.5v273h83v-476h-83v70q-46 -82 -152 -82q-78 0 -119 45q-23 26 -32 61t-9 111z"/>
<glyph glyph-name="udieresis" horiz-adv-x="522" unicode="ü" d="M309 562v108h85v-108h-85zM129 562v108h85v-108h-85zM61 205v271h83v-274q0 -65 16 -96q23 -45 92 -45q58 0 89.5 40.5t31.5 101.5v273h83v-476h-83v70q-46 -82 -152 -82q-78 0 -119 45q-23 26 -32 61t-9 111z"/>
<glyph glyph-name="yacute" horiz-adv-x="441" unicode="ý" d="M431 476l-209 -573q-21 -59 -55 -80t-89 -21q-28 0 -60 6v67q33 -5 54 -5q41 0 60 19q15 15 26 48l21 61l-165 478h88l93 -288l26 -83h1q14 47 29 89l97 282h83zM245 680h106l-102 -128h-73z"/>
<glyph glyph-name="thorn" horiz-adv-x="555" unicode="þ" d="M146 238q0 -85 41 -133t105 -48q65 0 101.5 48t36.5 133q0 86 -38 133t-102 47t-104 -47.5t-40 -132.5zM304 -12q-53 0 -94 22.5t-61 59.5v-260h-83v870h83v-274q20 34 61.5 57.5t94.5 23.5q93 0 151.5 -66t58.5 -184q0 -115 -58.5 -182t-152.5 -67z"/>
<glyph glyph-name="OE" horiz-adv-x="980" unicode="Œ" d="M944 0h-446q-63 -12 -114 -12q-158 0 -249 90.5t-91 259.5q0 164 91 258.5t250 94.5q48 0 113 -12h427v-79h-363v-209h329v-79h-329v-233h382v-79zM473 73v530q-40 8 -89 8q-116 0 -182.5 -69t-66.5 -204q0 -131 70.5 -202.5t179.5 -71.5q57 0 88 9z"/>
<glyph glyph-name="oe" horiz-adv-x="878" unicode="œ" d="M627 420q-55 0 -93.5 -36.5t-45.5 -98.5h267q-5 64 -38.5 99.5t-89.5 35.5zM124 237q0 -84 39 -132t103 -48t103 48t39 132q0 85 -38.5 133.5t-103.5 48.5t-103.5 -48.5t-38.5 -133.5zM778 141l60 -43q-10 -15 -23.5 -29.5t-38.5 -35t-64 -33t-84 -12.5q-120 0 -181 87 q-63 -87 -181 -87q-103 0 -165 67.5t-62 180.5q0 114 63 182.5t164 68.5q117 0 181 -91q64 91 180 91q104 0 159 -69.5t55 -180.5v-18h-356q2 -65 40 -112t111 -47q93 0 142 81z"/>
<glyph glyph-name="Scaron" horiz-adv-x="585" unicode="Š" d="M532 578l-65 -55q-64 91 -183 91q-63 0 -103 -28t-40 -78q0 -44 27 -66.5t93 -38.5l92 -23q97 -25 147.5 -66t50.5 -124q0 -94 -72 -148t-184 -54q-92 0 -162.5 38t-108.5 101l72 51q26 -48 79 -79.5t125 -31.5q71 0 115.5 30.5t44.5 87.5q0 47 -33.5 72t-105.5 43 l-83 21q-44 12 -72 22.5t-57 30.5t-43 51.5t-14 74.5q0 89 67.5 140.5t165.5 51.5q162 0 247 -114zM229 890l60 -83l62 83h83l-106 -146h-77l-107 146h85z"/>
<glyph glyph-name="scaron" horiz-adv-x="461" unicode="š" d="M410 412l-54 -54q-54 60 -132 60q-41 0 -67.5 -17t-26.5 -48t24 -45t83 -27l55 -11q64 -14 100.5 -43.5t36.5 -87.5q0 -71 -55.5 -111t-143.5 -40q-64 0 -118.5 27t-85.5 67l54 56q62 -81 155 -81q50 0 79.5 20t29.5 55q0 31 -20 43.5t-63 20.5l-65 13q-150 29 -150 133 q0 71 54 108t128 37q61 0 108 -22t74 -53zM172 680l60 -66l64 66h75l-99 -128h-79l-98 128h77z"/>
<glyph glyph-name="Ydieresis" horiz-adv-x="591" unicode="Ÿ" d="M338 278v-278h-88v278l-246 402h101l194 -318l199 318h99zM355 751v108h85v-108h-85zM175 751v108h85v-108h-85z"/>
<glyph glyph-name="circumflex" horiz-adv-x="507" unicode="ˆ" d="M252 618l-60 -66h-77l98 128h79l99 -128h-75z"/>
<glyph glyph-name="tilde" horiz-adv-x="537" unicode="˜" d="M371 681l66 -17q-10 -23 -17.5 -36.5t-20.5 -30.5t-29.5 -25.5t-37.5 -8.5q-30 0 -78 25q-2 1 -14 8t-20.5 10t-16.5 3q-14 0 -23.5 -15.5t-12.5 -31.5l-67 14q37 102 107 102q30 0 67 -21q41 -23 56 -23q25 0 41 47z"/>
<glyph glyph-name="uni0394" horiz-adv-x="773" unicode="Δ" d="M386 568l-190 -497h382zM86 0l264 680h73l264 -680h-601z"/>
<glyph glyph-name="uni03BC" horiz-adv-x="528" unicode="μ" d="M236 -12q-27 0 -51 9t-33 19v-206h-86v666h84v-274q0 -65 16 -96q23 -45 92 -45q58 0 89.5 40.5t31.5 101.5v273h83v-476h-83v70q-46 -82 -143 -82z"/>
<glyph glyph-name="pi" horiz-adv-x="619" unicode="π" d="M395 410h-201v-410h-83v410h-92v66h564v-66h-105v-289q0 -33 7 -45q9 -16 39 -16q33 0 59 11v-71q-36 -12 -83 -12q-80 0 -99 50q-6 16 -6 46v326z"/>
<glyph glyph-name="enspace" horiz-adv-x="500" unicode=" "/>
<glyph glyph-name="emspace" horiz-adv-x="1000" unicode=" "/>
<glyph glyph-name="thinspace" horiz-adv-x="133" unicode=" "/>
<glyph glyph-name="endash" horiz-adv-x="631" unicode="–" d="M569 234h-507v76h507v-76z"/>
<glyph glyph-name="emdash" horiz-adv-x="823" unicode="—" d="M761 234h-699v76h699v-76z"/>
<glyph glyph-name="quoteleft" horiz-adv-x="206" unicode="‘" d="M150 432h-95v75q0 83 9 115q18 65 86 70v-46q-23 -3 -33 -20q-11 -19 -11 -65v-14h44v-115z"/>
<glyph glyph-name="quotesinglbase" horiz-adv-x="211" unicode="‚" d="M58 115h95v-75q0 -83 -9 -115q-18 -65 -86 -70v46q23 3 33 20q11 19 11 65v14h-44v115z"/>
<glyph glyph-name="quotedblleft" horiz-adv-x="349" unicode="“" d="M150 432h-95v75q0 83 9 115q18 65 86 70v-46q-23 -3 -33 -20q-11 -19 -11 -65v-14h44v-115zM293 432h-95v75q0 83 9 115q18 65 86 70v-46q-23 -3 -33 -20q-11 -19 -11 -65v-14h44v-115z"/>
<glyph glyph-name="quotedblright" horiz-adv-x="344" unicode="”" d="M200 680h95v-75q0 -83 -9 -115q-18 -65 -86 -70v46q23 3 33 20q11 19 11 65v14h-44v115zM57 680h95v-75q0 -83 -9 -115q-18 -65 -86 -70v46q23 3 33 20q11 19 11 65v14h-44v115z"/>
<glyph glyph-name="dagger" horiz-adv-x="460" unicode="†" d="M431 433h-161v-433h-81v433h-160v75h160v172h81v-172h161v-75z"/>
<glyph glyph-name="daggerdbl" horiz-adv-x="496" unicode="‡" d="M207 247v186h-160v75h160v172h81v-172h161v-75h-161v-186h161v-75h-161v-172h-81v172h-160v75h160z"/>
<glyph glyph-name="ellipsis" horiz-adv-x="881" unicode="…" d="M728 114h95v-114h-95v114zM393 114h95v-114h-95v114zM58 114h95v-114h-95v114z"/>
<glyph glyph-name="perthousand" horiz-adv-x="1278" unicode="‰" d="M1174 199q0 76 -21 120.5t-64 44.5q-41 0 -62 -44t-21 -113q0 -67 20 -111t63 -44q85 0 85 147zM1247 200q0 -88 -40.5 -149t-118.5 -61q-80 0 -118.5 61t-38.5 149q0 43 8 81t25.5 71.5t49.5 53t76 19.5q45 0 77.5 -20.5t49 -55t23.5 -71t7 -78.5zM788 199 q0 76 -21 120.5t-64 44.5q-41 0 -62 -44t-21 -113q0 -67 20 -111t63 -44q85 0 85 147zM861 200q0 -88 -40.5 -149t-118.5 -61q-80 0 -118.5 61t-38.5 149q0 43 8 81t25.5 71.5t49.5 53t76 19.5q45 0 77.5 -20.5t49 -55t23.5 -71t7 -78.5zM658 680l-353 -680h-75l354 680h74z M274 462q0 76 -21 120.5t-64 44.5q-41 0 -62 -44t-21 -113q0 -67 20 -111t63 -44q85 0 85 147zM347 463q0 -88 -40.5 -149t-118.5 -61q-80 0 -118.5 61t-38.5 149q0 43 8 81t25.5 71.5t49.5 53t76 19.5q45 0 77.5 -20.5t49 -55t23.5 -71t7 -78.5z"/>
<glyph glyph-name="guilsinglleft" horiz-adv-x="258" unicode="‹" d="M200 132l-151 121v104l151 126v-96l-94 -77l94 -85v-93z"/>
<glyph glyph-name="guilsinglright" horiz-adv-x="258" unicode="›" d="M209 253l-151 -121v93l94 85l-94 77v96l151 -126v-104z"/>
<glyph glyph-name="fraction" horiz-adv-x="568" unicode="⁄" d="M488 680h90l-497 -680h-91z"/>
<glyph glyph-name="Euro" horiz-adv-x="597" unicode="€" d="M488 184l70 -34q-51 -162 -213 -162q-106 0 -164 66t-74 167h-77l25 71h44q-1 7 -1 46q0 26 1 32h-69l25 71h51q17 115 77 183t162 68q157 0 212 -162l-69 -41q-38 131 -143 131q-63 0 -101.5 -48.5t-50.5 -130.5h245l-24 -71h-228q-1 -8 -1 -37q0 -35 1 -41h210l-24 -71 h-178q26 -160 151 -160q108 0 143 123z"/>
<glyph glyph-name="trademark" horiz-adv-x="922" unicode="™" d="M838 233h-71v222q0 79 5 126h-2q-19 -83 -31 -121l-73 -227h-59l-78 226q-20 55 -31 114h-2q6 -58 6 -117v-223h-71v447h93l73 -215q19 -58 39 -134h2q35 124 38 134l67 215h95v-447zM50 611v69h339v-69h-133v-377h-73v377h-133z"/>
<glyph glyph-name="arrowleft" horiz-adv-x="812" unicode="←" d="M772 272v-69h-587l208 -203h-106l-237 238l237 238h106l-209 -204h588z"/>
<glyph glyph-name="arrowup" horiz-adv-x="596" unicode="↑" d="M60 393v92l238 237l238 -237v-92l-196 195v-588h-83v589z"/>
<glyph glyph-name="arrowright" horiz-adv-x="812" unicode="→" d="M429 476h106l237 -238l-237 -238h-106l207 203h-586v69h587z"/>
<glyph glyph-name="arrowdown" horiz-adv-x="596" unicode="↓" d="M60 227v92l197 -196v589h83v-588l196 195v-92l-238 -237z"/>
<glyph glyph-name="carriagereturn" horiz-adv-x="836" unicode="↵" d="M762 476v-273h-587l208 -203h-106l-237 238l237 238h106l-209 -204h505v204h83z"/>
<glyph glyph-name="partialdiff" horiz-adv-x="546" unicode="∂" d="M182 599l-28 73q44 18 94 18q123 0 185.5 -92.5t62.5 -262.5q0 -176 -63.5 -261.5t-177.5 -85.5q-59 0 -104 20.5t-70.5 55.5t-37.5 76t-12 88q0 109 62 168t155 59q95 0 159 -66q-7 112 -44.5 167t-112.5 55q-35 0 -68 -12zM255 62q69 0 107.5 62t44.5 161 q-18 37 -59 66t-92 29q-59 0 -99 -40.5t-40 -114.5q0 -73 39.5 -118t98.5 -45z"/>
<glyph glyph-name="product" horiz-adv-x="836" unicode="∏" d="M620 598h-404v-787h-88v787h-101v82h782v-82h-101v-787h-88v787z"/>
<glyph glyph-name="summation" horiz-adv-x="615" unicode="∑" d="M31 -127l254 368l-253 372v67h549v-81h-438l240 -355l-245 -353h442v-81h-549v63z"/>
<glyph glyph-name="minus" horiz-adv-x="822" unicode="−" d="M747 246h-673v76h673v-76z"/>
<glyph glyph-name="radical" horiz-adv-x="532" unicode="√" d="M446 680h74l-181 -683h-83l-142 425h-94v61h159l83 -258l36 -116h1q18 74 29 117z"/>
<glyph glyph-name="infinity" horiz-adv-x="913" unicode="∞" d="M215 252q28 0 64 17t58 32t58 43q-125 94 -182 94q-40 0 -64 -26t-24 -66q0 -44 24 -69t66 -25zM789 345q0 44 -25 68.5t-67 24.5q-26 0 -62 -16.5t-58.5 -32t-60.5 -43.5q38 -27 60.5 -42.5t61 -33.5t65.5 -18q41 0 63.5 26t22.5 67zM868 349q0 -71 -44 -119.5 t-126 -48.5q-34 0 -68 10.5t-67.5 31.5t-55 37t-54.5 44q-9 -6 -36 -27t-39.5 -30t-38 -25t-43 -23t-41.5 -13.5t-46 -6.5q-82 0 -122 47.5t-40 116.5q0 76 43.5 121.5t123.5 45.5q39 0 82 -18t72.5 -38t89.5 -65q4 3 41.5 31.5t50.5 36t43.5 24.5t56.5 23t54 6 q80 0 122 -46.5t42 -114.5z"/>
<glyph glyph-name="logicaland" horiz-adv-x="216" unicode="∧" d="M60 377h95v-114h-95v114z"/>
<glyph glyph-name="approxequal" horiz-adv-x="578" unicode="≈" d="M485 249l40 -67q-68 -85 -138 -85q-44 0 -116 39q-52 28 -86 28q-23 0 -40.5 -15t-48.5 -55l-42 64q58 90 132 90q43 0 121 -38q62 -30 83 -30q40 0 95 69zM485 455l40 -67q-68 -85 -138 -85q-44 0 -116 39q-52 28 -86 28q-23 0 -40.5 -15t-48.5 -55l-42 64q58 90 132 90 q43 0 121 -38q62 -30 83 -30q40 0 95 69z"/>
<glyph glyph-name="notequal" horiz-adv-x="781" unicode="≠" d="M726 416v-78h-289l-51 -97h340v-77h-381l-86 -164h-83l86 164h-209v77h250l51 97h-301v78h342l95 179h82l-94 -179h248z"/>
<glyph glyph-name="lessequal" horiz-adv-x="738" unicode="≤" d="M686 188v-90l-640 257v80l640 257v-87l-534 -209zM686 0h-640v76h640v-76z"/>
<glyph glyph-name="greaterequal" horiz-adv-x="738" unicode="≥" d="M52 98v90l534 208l-534 209v87l640 -257v-80zM692 0h-640v76h640v-76z"/>
<glyph glyph-name="dotmath" horiz-adv-x="216" unicode="⋅" d="M60 377h95v-114h-95v114z"/>
<glyph glyph-name="lozenge" horiz-adv-x="522" unicode="◊" d="M261 100l139 239l-139 242l-139 -242zM232 683h59l202 -344l-202 -340h-59l-203 340z"/>
</font>
</defs>
</svg>
